<svg width="412" height="507" viewBox="0 0 412 507" fill="none" xmlns="http://www.w3.org/2000/svg">
<path d="M147.355 331.263C147.355 329.882 148.475 328.763 149.855 328.763H205.204C206.781 328.763 207.964 330.206 207.655 331.753L188.392 428.069C188.158 429.238 187.132 430.079 185.94 430.079H149.855C148.475 430.079 147.355 428.96 147.355 427.579V331.263Z" fill="#C4C4C4" stroke="#9D9B9B" stroke-width="5"/>
<path d="M271.263 331.263C271.263 329.882 270.144 328.763 268.763 328.763H213.415C211.837 328.763 210.654 330.206 210.963 331.753L230.227 428.069C230.46 429.238 231.486 430.079 232.678 430.079H268.763C270.144 430.079 271.263 428.96 271.263 427.579V331.263Z" fill="#C4C4C4" stroke="#9D9B9B" stroke-width="5"/>
<path d="M148.17 423.061C147.911 420.974 149.54 419.132 151.643 419.132H187.408C189.015 419.132 190.386 420.21 190.749 421.704C191.966 426.712 192.652 430.813 192.425 435.297C192.2 439.77 191.056 444.781 188.399 451.543L174.668 482.125C173.877 483.889 173.709 485.869 174.195 487.74L176.546 496.811C177.088 498.899 175.629 500.975 173.481 501.174L145.082 503.804C144.905 503.82 144.726 503.823 144.548 503.812L127.891 502.803C126.251 502.703 124.901 501.477 124.645 499.855L124.181 496.918C123.918 495.252 124.881 493.636 126.47 493.073L149.12 485.051C152.88 483.72 155.208 479.953 154.718 475.995L148.17 423.061Z" fill="#C4C4C4" stroke="#9D9B9B" stroke-width="5"/>
<path d="M271.398 423.058C271.654 420.972 270.027 419.132 267.924 419.132H232.161C230.552 419.132 229.179 420.213 228.818 421.711C227.598 426.763 226.909 430.902 227.134 435.427C227.359 439.941 228.504 444.996 231.164 451.815L244.907 482.65C245.688 484.404 245.853 486.37 245.375 488.229L242.999 497.46C242.462 499.546 243.919 501.617 246.064 501.817L274.478 504.468C274.656 504.484 274.836 504.487 275.016 504.476L291.667 503.46C293.307 503.36 294.657 502.132 294.911 500.508L295.388 497.466C295.649 495.804 294.691 494.192 293.107 493.627L270.417 485.532C266.67 484.195 264.352 480.439 264.837 476.49L271.398 423.058Z" fill="#C4C4C4" stroke="#9D9B9B" stroke-width="5"/>
<path d="M224.668 414.725C224.288 413.7 224.452 412.518 225.13 411.586L249.437 378.144C250.906 376.124 253.957 376.247 255.257 378.38L275.752 411.991C276.206 412.735 276.356 413.593 276.191 414.385C274.918 420.488 273.158 425.466 269.814 430.656C266.44 435.894 261.382 441.457 253.353 448.617C252.101 449.734 250.207 449.743 248.942 448.636C236.645 437.872 230.295 429.898 224.668 414.725Z" fill="#C4C4C4" stroke="#9D9B9B" stroke-width="5"/>
<path d="M140.853 414.119C140.473 413.095 140.637 411.913 141.315 410.98L165.622 377.539C167.09 375.519 170.141 375.642 171.441 377.774L191.937 411.385C192.39 412.129 192.541 412.988 192.376 413.78C191.103 419.883 189.343 424.861 185.999 430.051C182.624 435.289 177.566 440.852 169.538 448.012C168.285 449.129 166.392 449.138 165.127 448.03C152.829 437.266 146.479 429.292 140.853 414.119Z" fill="#C4C4C4" stroke="#9D9B9B" stroke-width="5"/>
<path d="M151.5 25.9211H260.474L229.908 336.895H184.059L151.5 25.9211Z" fill="#292929"/>
<path d="M151.454 266.29C151.845 264.735 153.244 263.645 154.848 263.645H260.48C262.075 263.645 263.469 264.724 263.868 266.268L285.349 349.288C285.922 351.504 284.249 353.664 281.96 353.664H133.948C131.668 353.664 129.997 351.52 130.554 349.31L151.454 266.29Z" fill="#B1AEAE" stroke="#9D9B9B" stroke-width="5"/>
<path d="M34.7687 289.737C33.6855 289.148 32.9748 288.06 32.8796 286.883L29.7651 248.377C29.693 247.485 29.9653 246.599 30.5262 245.901L32.5182 243.424C33.9623 241.628 37.2717 241.375 39.4059 243.227C43.3296 246.631 48.5707 250.559 54.205 254.782C54.4783 254.987 54.7526 255.192 55.0277 255.399C61.0101 259.883 67.4348 264.723 73.4107 269.763C79.3946 274.81 84.8472 279.991 88.9096 285.132C92.9979 290.306 95.4917 295.208 95.926 299.71C95.9794 300.263 95.7776 300.722 95.3188 301.102C94.8196 301.516 94.0323 301.799 93.1529 301.743C92.5361 301.703 91.9286 301.664 91.3301 301.626C69.1382 300.205 59.4113 299.583 53.0572 298.195C47.9917 297.088 45.2239 295.544 39.5635 292.386C38.1672 291.607 36.5949 290.73 34.7687 289.737Z" fill="#B1AEAE" stroke="#9D9B9B" stroke-width="5"/>
<path d="M376.179 289.737C377.263 289.148 377.973 288.06 378.068 286.883L381.183 248.377C381.255 247.485 380.983 246.599 380.422 245.901L378.43 243.424C376.986 241.628 373.676 241.375 371.542 243.227C367.618 246.631 362.377 250.559 356.743 254.782C356.47 254.987 356.195 255.192 355.92 255.399C349.938 259.883 343.513 264.723 337.537 269.763C331.554 274.81 326.101 279.991 322.038 285.132C317.95 290.306 315.456 295.208 315.022 299.71C314.969 300.263 315.17 300.722 315.629 301.102C316.129 301.516 316.916 301.799 317.795 301.743C318.412 301.703 319.019 301.664 319.618 301.626C341.81 300.205 351.537 299.583 357.891 298.195C362.956 297.088 365.724 295.544 371.385 292.386C372.781 291.607 374.353 290.73 376.179 289.737Z" fill="#B1AEAE" stroke="#9D9B9B" stroke-width="5"/>
<path d="M61.1386 137.189C62.5602 135.905 64.5069 135.277 66.504 135.443L98.4308 138.095C101.667 138.363 104.325 140.651 104.972 143.717C109.621 165.748 109.61 189.699 92.1635 281.836C91.4503 285.602 87.9979 288.233 84.1859 287.917L57.4775 285.698C54.1395 285.421 51.3665 282.91 50.746 279.604C41.3745 229.659 38.4912 198.987 40.7119 178.287C41.8167 167.99 44.1792 160.235 47.5897 153.835C51.0009 147.433 55.5282 142.258 61.1386 137.189Z" fill="#C4C4C4" stroke="#9D9B9B" stroke-width="5"/>
<path d="M351.365 138.505C349.944 137.22 347.998 136.59 346.001 136.754L314.07 139.384C310.834 139.65 308.174 141.935 307.525 145.002C302.86 167.029 302.854 190.98 320.235 283.13C320.945 286.896 324.396 289.53 328.208 289.216L354.92 287.016C358.258 286.741 361.033 284.233 361.656 280.927C371.064 230.988 373.969 200.318 371.763 179.617C370.666 169.319 368.308 161.562 364.902 155.16C361.496 148.755 356.972 143.577 351.365 138.505Z" fill="#C4C4C4" stroke="#9D9B9B" stroke-width="5"/>
<path d="M199.804 264.185V318.166C186.319 316.265 175.721 313.717 165.392 308.961C154.342 303.873 143.451 296.189 129.63 283.801C129.248 283.459 128.94 283.025 128.743 282.555L88.7189 187.016C84.4662 174.654 82.5399 165.014 82.4749 155.581C82.4097 146.116 84.2167 136.701 87.6395 124.767C88.0254 123.422 89.2164 122.437 90.6416 122.306L156.02 116.333C156.889 116.253 157.757 116.502 158.452 117.029L198.418 147.32C199.291 147.982 199.804 149.014 199.804 150.109V186.099C199.804 186.78 199.6 187.465 199.213 188.062C193.588 196.738 189.941 204.143 189.619 211.823C189.294 219.599 192.385 227.171 199.056 236.182C199.545 236.844 199.804 237.617 199.804 238.381V264.185ZM254.191 305.609C244.17 310.518 232.871 314.178 217.846 317.855V264.185V264.12L217.842 264.055L216.519 238.624C216.473 237.734 216.781 236.815 217.4 236.057C224.16 227.796 227.094 220.631 226.788 212.861C226.489 205.289 223.105 197.512 218.247 188.073C217.983 187.561 217.846 186.996 217.846 186.439V149.923C217.846 148.889 218.302 147.909 219.093 147.244L254.887 117.155C255.602 116.554 256.528 116.264 257.458 116.349L322.502 122.292C323.977 122.427 325.185 123.471 325.519 124.861C328.496 137.245 329.477 146.865 328.769 156.296C328.06 165.739 325.649 175.129 321.666 187.074L285.962 282.527C285.768 283.044 285.45 283.513 285.045 283.879C274.187 293.687 264.861 300.383 254.191 305.609Z" fill="#C4C4C4" stroke="#9D9B9B" stroke-width="5"/>
<path d="M325.4 162.72C324.821 162.411 324.422 161.929 324.239 161.354L321.857 162.114L324.239 161.354C322.536 156.017 317.676 140.226 315.072 126.043C313.762 118.905 313.072 112.418 313.533 107.92C313.766 105.641 314.265 104.22 314.825 103.467C315.232 102.919 315.693 102.649 316.664 102.77C317.301 102.85 317.965 102.931 318.652 103.014C326.945 104.021 338.772 105.457 349.658 111.335C361.265 117.602 371.949 129.019 375.536 151.054C379.668 176.44 380.797 187.601 381.01 192.437L325.4 162.72ZM383.137 193.572C383.137 193.572 383.13 193.569 383.114 193.561C383.129 193.567 383.137 193.571 383.137 193.572Z" fill="#C4C4C4" stroke="#9D9B9B" stroke-width="5"/>
<path d="M86.2277 165.606C86.8232 165.33 87.2484 164.872 87.4638 164.308C89.4637 159.075 95.202 143.582 98.5974 129.567C100.306 122.514 101.359 116.076 101.152 111.559C101.046 109.271 100.628 107.825 100.112 107.042C99.7362 106.472 99.2908 106.176 98.3144 106.243C97.6742 106.287 97.0071 106.33 96.3156 106.375C87.9804 106.915 76.0915 107.685 64.8923 112.944C52.9526 118.55 41.6449 129.349 36.8274 151.148C31.2776 176.261 29.5237 187.341 29.0397 192.157L86.2277 165.606ZM26.8519 193.171C26.8517 193.172 26.8593 193.169 26.8752 193.162C26.8601 193.167 26.8521 193.171 26.8519 193.171Z" fill="#C4C4C4" stroke="#9D9B9B" stroke-width="5"/>
<path d="M223.23 49.7073L223.199 49.7507L223.169 49.7953L210.949 68.3357C208.712 71.7309 203.691 71.6078 201.622 68.107L190.863 49.8992L190.812 49.8136L190.755 49.7323L182.645 38.2075C176.467 29.4278 162.651 34.4831 163.599 45.1769L165.356 65.0052C165.579 67.5247 166.703 69.9491 168.663 71.6932C173.586 76.0733 177.666 78.6445 181.605 81.1159L181.706 81.1793C185.584 83.6122 189.32 85.9561 193.837 89.9335C194.898 90.8678 195.513 92.2745 195.513 93.7957V117.892C195.513 121.992 191.188 124.651 187.529 122.799L149.21 103.403C147.543 102.559 146.418 100.926 146.224 99.0679L136.969 10.5721C136.63 7.32589 139.176 4.5 142.439 4.5H271.035C274.256 4.5 276.788 7.25594 276.515 10.4656L269.007 98.8355C268.84 100.799 267.635 102.523 265.849 103.355L222.954 123.34C219.308 125.039 215.132 122.377 215.132 118.355V110.309V94.8279C215.132 92.9245 216.116 91.1564 217.733 90.1534L243.81 73.9858C246.592 72.2614 248.41 69.3386 248.728 66.0814L250.787 44.9746C251.827 34.3084 238.099 29.1194 231.824 37.8074L223.23 49.7073Z" fill="#C4C4C4" stroke="#9D9B9B" stroke-width="5"/>
<path d="M40.6754 302.11C39.6401 299.748 41.4284 297.115 44.0059 297.207L91.3861 298.899C93.9611 298.99 95.5574 301.739 94.3613 304.021L79.5045 332.367C77.8237 335.574 78.3588 339.494 80.8376 342.133L89.4938 351.348C90.5473 352.47 90.7447 354.148 89.9804 355.483L83.2822 367.186C82.6587 368.275 81.4997 368.947 80.2446 368.947H74.9121C73.8307 368.947 72.7593 369.154 71.7552 369.555L65.1277 372.206C64.2799 372.545 63.3332 372.54 62.4896 372.191L56.5262 369.723C55.2103 369.179 53.7786 368.973 52.3626 369.127L45.0223 369.92C43.7838 370.054 42.5674 369.519 41.8285 368.517L37.3089 362.383C36.3675 361.105 36.4035 359.354 37.3964 358.117L52.1696 339.7C54.1498 337.232 54.5947 333.868 53.3243 330.969L40.6754 302.11Z" fill="#C4C4C4" stroke="#9D9B9B" stroke-width="5"/>
<path d="M368.64 303.439C369.676 301.077 367.887 298.444 365.31 298.536L317.93 300.227C315.355 300.319 313.758 303.068 314.954 305.35L329.811 333.696C331.492 336.903 330.957 340.823 328.478 343.462L319.822 352.677C318.769 353.799 318.571 355.477 319.335 356.812L326.034 368.515C326.657 369.604 327.816 370.276 329.071 370.276H334.404C335.485 370.276 336.557 370.483 337.561 370.884L344.188 373.535C345.036 373.874 345.983 373.869 346.826 373.52L352.79 371.052C354.106 370.508 355.537 370.302 356.953 370.455L364.293 371.249C365.532 371.383 366.748 370.848 367.487 369.846L372.007 363.712C372.948 362.434 372.912 360.683 371.919 359.446L357.146 341.029C355.166 338.561 354.721 335.197 355.991 332.298L368.64 303.439Z" fill="#C4C4C4" stroke="#9D9B9B" stroke-width="5"/>
<path d="M188.711 66.4539C188.711 69.7568 184.704 69.7763 181.401 69.7763C178.099 69.7763 175.421 67.0989 175.421 63.796C175.421 60.4932 178.099 57.8158 181.401 57.8158C184.704 57.8158 188.711 63.1511 188.711 66.4539Z" fill="#6DACE6"/>
<path d="M237.217 63.796C237.217 67.0988 234.54 69.7763 231.237 69.7763C227.934 69.7763 224.602 69.7567 224.602 66.4539C224.602 63.1511 227.934 57.8158 231.237 57.8158C234.54 57.8158 237.217 60.4932 237.217 63.796Z" fill="#6DACE6"/>
<path d="M205.508 198.69C206.881 197.155 209.241 196.976 210.777 198.348C215.896 202.921 217.574 206.826 217.868 215.67C217.903 216.705 217.513 217.722 216.781 218.454C210.369 224.869 206.155 224.992 199.289 218.568C198.44 217.773 198.015 216.621 198.131 215.464C198.928 207.562 200.82 203.931 205.508 198.69Z" fill="#6DACE6"/>
<g filter="url(#filter0_f)">
<path d="M205.55 194.693C206.938 193.172 209.285 192.996 210.846 194.339C217.988 200.487 220.225 205.419 220.57 217.333C220.6 218.368 220.21 219.383 219.483 220.121C211.079 228.652 205.686 228.807 196.671 220.238C195.828 219.436 195.4 218.279 195.51 217.12C196.525 206.421 199.037 201.83 205.55 194.693Z" fill="#6DACE6" fill-opacity="0.53"/>
</g>
<g filter="url(#filter1_f)">
<path d="M191.147 67.3399C191.147 71.7437 185.805 71.7697 181.401 71.7697C176.998 71.7697 173.428 68.1998 173.428 63.7961C173.428 59.3923 176.998 55.8224 181.401 55.8224C185.805 55.8224 191.147 62.9362 191.147 67.3399Z" fill="#6DACE6" fill-opacity="0.53"/>
<path d="M239.031 63.7961C239.031 68.1998 235.461 71.7697 231.057 71.7697C226.653 71.7697 222.21 71.7437 222.21 67.3399C222.21 62.9362 226.653 55.8224 231.057 55.8224C235.461 55.8224 239.031 59.3923 239.031 63.7961Z" fill="#6DACE6" fill-opacity="0.53"/>
</g>
<g style="mix-blend-mode:darken">
<path d="M145.5 93.5L195 116L192.5 122.5L147.5 102.5L145.5 93.5Z" fill="#AAA8A8"/>
<path d="M268 93L216 117.052L218.626 124L265.899 102.621L268 93Z" fill="#AAA8A8"/>
<path d="M146 119L151.5 115L200.874 151.998L196.239 157.967L146 119Z" fill="#AAA8A8"/>
<rect x="190.444" y="148" width="7.55781" height="39.5211" transform="rotate(0.643847 190.444 148)" fill="#AAA8A8"/>
<rect x="190.113" y="237.029" width="7.55781" height="79.9066" transform="rotate(0.169548 190.113 237.029)" fill="#AAA8A8"/>
<rect x="95.2154" y="299.876" width="7.55781" height="54.9895" transform="rotate(91.9553 95.2154 299.876)" fill="#AAA8A8"/>
<rect x="368.864" y="299.281" width="7.55781" height="54.9895" transform="rotate(87.642 368.864 299.281)" fill="#AAA8A8"/>
<path d="M130 286.893L128 272C144.438 290.308 164.604 302.861 201.5 308L197.834 317.394C173.626 314.668 158.669 307.57 130 286.893Z" fill="#AAA8A8"/>
<path d="M286.5 285L290.068 269C273.63 287.308 253.465 299.861 216.568 305L220.234 314.394C244.443 311.668 257.831 305.677 286.5 285Z" fill="#AAA8A8"/>
<rect x="218.236" y="237" width="7.55781" height="79.9066" transform="rotate(0.169548 218.236 237)" fill="#AAA8A8"/>
<path d="M190.444 186L198.001 186.085C186.878 207.381 186.67 217.714 198.001 239L190.444 240C178.098 219.19 176.647 207.699 190.444 186Z" fill="#AAA8A8"/>
<path d="M225.152 186.107L217.595 186.192C228.718 207.488 228.926 217.82 217.595 239.107L225.152 240.107C237.498 219.297 238.949 207.806 225.152 186.107Z" fill="#AAA8A8"/>
<rect x="218.444" y="149" width="7.55781" height="39.5211" transform="rotate(0.643847 218.444 149)" fill="#AAA8A8"/>
<rect width="7.55781" height="56.3298" transform="matrix(-0.657927 -0.753082 -0.753082 0.657927 264.26 119.574)" fill="#AAA8A8"/>
<path d="M165.657 449.197L171.776 444.761C156.717 430.725 150.917 422.785 144.398 408.522L140.458 414.447C147.559 428.755 152.881 436.417 165.657 449.197Z" fill="#AAA8A8"/>
<path d="M249.325 450.197L255.443 445.761C240.385 431.725 234.584 423.785 228.065 409.522L224.125 415.447C231.227 429.755 236.548 437.417 249.325 450.197Z" fill="#AAA8A8"/>
<rect x="174.622" y="493.307" width="7.55781" height="50.6514" transform="rotate(88.0447 174.622 493.307)" fill="#AAA8A8"/>
<path d="M294.88 496.5L294.88 502.553L244 503L243.758 495L294.88 496.5Z" fill="#AAA8A8"/>
<path d="M378.714 189.372L382.366 182.755L323 151L323 158.617L378.714 189.372Z" fill="#AAA8A8"/>
<path d="M31.1779 189.163L28 182.306L89.4535 154.807L88.9175 162.405L31.1779 189.163Z" fill="#AAA8A8"/>
</g>
<path d="M168 376.5V406" stroke="#9D9B9B" stroke-width="2"/>
<path d="M253 377V410" stroke="#9D9B9B" stroke-width="2"/>
<path d="M168 422V449" stroke="#9D9B9B" stroke-width="2"/>
<path d="M153 209L154.017 303" stroke="#9D9B9B" stroke-width="2"/>
<path d="M206 5L205.97 70.0005" stroke="#9D9B9B" stroke-width="2"/>
<path d="M331 167L339 287" stroke="#9D9B9B" stroke-width="2"/>
<path d="M80 168L71 287" stroke="#9D9B9B" stroke-width="2"/>
<path d="M262 213L263.017 302" stroke="#9D9B9B" stroke-width="2"/>
<path d="M253 422V449" stroke="#9D9B9B" stroke-width="2"/>
<path d="M272.869 347.918C275.763 345.502 277.334 337.585 260.5 335.782C261.127 351.112 269.598 350.648 272.869 347.918Z" fill="#FF8989" stroke="#F07272" stroke-width="3"/>
<path d="M46.1289 196.538C49.5241 194.9 52.9765 187.603 37.0881 181.755C33.9632 196.776 42.2921 198.389 46.1289 196.538Z" fill="#FF8989"/>
<path d="M41.3647 200.008C43.4307 196.855 42.6305 188.823 26 191.996C31.0609 206.481 39.03 203.572 41.3647 200.008Z" fill="#FF8989"/>
<path d="M46.1289 196.538C49.5241 194.9 52.9765 187.603 37.0881 181.755C33.9632 196.776 42.2921 198.389 46.1289 196.538Z" stroke="#F07272" stroke-width="3"/>
<path d="M41.3647 200.008C43.4307 196.855 42.6305 188.823 26 191.996C31.0609 206.481 39.03 203.572 41.3647 200.008Z" stroke="#F07272" stroke-width="3"/>
<path d="M246.33 186.866C242.619 187.526 237.324 193.618 251.042 203.541C258.108 189.922 250.525 186.12 246.33 186.866Z" fill="#FF8989"/>
<path d="M251.299 185.213C248.901 188.122 248.819 196.193 265.697 194.856C262.248 179.905 254.009 181.926 251.299 185.213Z" fill="#FF8989"/>
<path d="M254.174 180.067C253.617 183.796 257.705 190.756 271.481 180.914C260.823 169.877 254.803 175.854 254.174 180.067Z" fill="#FF8989"/>
<path d="M246.33 186.866C242.619 187.526 237.324 193.618 251.042 203.541C258.108 189.922 250.525 186.12 246.33 186.866Z" stroke="#F07272" stroke-width="3"/>
<path d="M251.299 185.213C248.901 188.122 248.819 196.193 265.697 194.856C262.248 179.905 254.009 181.926 251.299 185.213Z" stroke="#F07272" stroke-width="3"/>
<path d="M254.174 180.067C253.617 183.796 257.705 190.756 271.481 180.914C260.823 169.877 254.803 175.854 254.174 180.067Z" stroke="#F07272" stroke-width="3"/>
<path d="M161.129 415.538C164.524 413.9 167.976 406.603 152.088 400.755C148.963 415.776 157.292 417.389 161.129 415.538Z" fill="#FF8989"/>
<path d="M156.365 419.008C158.431 415.855 157.63 407.823 141 410.996C146.061 425.481 154.03 422.572 156.365 419.008Z" fill="#FF8989"/>
<path d="M161.129 415.538C164.524 413.9 167.976 406.603 152.088 400.755C148.963 415.776 157.292 417.389 161.129 415.538Z" stroke="#F07272" stroke-width="3"/>
<path d="M156.365 419.008C158.431 415.855 157.63 407.823 141 410.996C146.061 425.481 154.03 422.572 156.365 419.008Z" stroke="#F07272" stroke-width="3"/>
<path d="M151.784 228.996C155.234 230.515 163.025 228.404 157.159 212.523C143.704 219.897 147.885 227.279 151.784 228.996Z" fill="#FF8989" stroke="#F07272" stroke-width="3"/>
<path d="M246.162 12.2951C242.846 14.0879 239.733 21.5356 255.874 26.6456C258.304 11.4961 249.909 10.2692 246.162 12.2951Z" fill="#FF8989"/>
<path d="M250.761 8.60857C248.842 11.8536 250.012 19.8403 266.479 15.9041C260.756 1.66827 252.929 4.94152 250.761 8.60857Z" fill="#FF8989"/>
<path d="M246.162 12.2951C242.846 14.0879 239.733 21.5356 255.874 26.6456C258.304 11.4961 249.909 10.2692 246.162 12.2951Z" stroke="#F07272" stroke-width="3"/>
<path d="M250.761 8.60857C248.842 11.8536 250.012 19.8403 266.479 15.9041C260.756 1.66827 252.929 4.94152 250.761 8.60857Z" stroke="#F07272" stroke-width="3"/>
<ellipse cx="143" cy="225" rx="3.5" ry="8" transform="rotate(-180 143 225)" fill="#509645"/>
<path d="M131 229C131 226.791 133.462 225 136.5 225C139.538 225 142 226.791 142 229C142 231.209 139.538 233 136.5 233C133.462 233 131 231.209 131 229Z" fill="#609D56"/>
<ellipse cx="140.5" cy="225.5" rx="3" ry="3.5" transform="rotate(-180 140.5 225.5)" fill="#66A75C"/>
<ellipse cx="246" cy="187" rx="3.5" ry="8" transform="rotate(-180 246 187)" fill="#509645"/>
<path d="M234 191C234 188.791 236.462 187 239.5 187C242.538 187 245 188.791 245 191C245 193.209 242.538 195 239.5 195C236.462 195 234 193.209 234 191Z" fill="#609D56"/>
<ellipse cx="243.5" cy="187.5" rx="3" ry="3.5" transform="rotate(-180 243.5 187.5)" fill="#66A75C"/>
<ellipse rx="3.5" ry="8" transform="matrix(-0.503778 0.863833 0.863833 0.503778 160.956 119.054)" fill="#509645"/>
<path d="M151.455 127.405C153.364 128.517 156.151 127.293 157.681 124.669C159.212 122.045 158.905 119.015 156.997 117.902C155.089 116.789 152.301 118.014 150.771 120.638C149.241 123.262 149.547 126.292 151.455 127.405Z" fill="#609D56"/>
<circle cx="89" cy="168" r="4" fill="#609D56"/>
<ellipse cx="97" cy="166.5" rx="7" ry="2.5" fill="#509645"/>
<ellipse cx="93" cy="171" rx="2" ry="3" fill="#66A75C"/>
<ellipse cx="94" cy="164" rx="3" ry="2" fill="#509645"/>
<circle cx="133" cy="281" r="4" fill="#609D56"/>
<ellipse cx="141" cy="279.5" rx="7" ry="2.5" fill="#509645"/>
<ellipse cx="137" cy="284" rx="2" ry="3" fill="#66A75C"/>
<ellipse cx="138" cy="277" rx="3" ry="2" fill="#509645"/>
<circle r="4" transform="matrix(0.611554 0.791203 0.791203 -0.611554 189.611 304.611)" fill="#609D56"/>
<ellipse rx="7" ry="2.5" transform="matrix(0.611554 0.791203 0.791203 -0.611554 193.317 311.858)" fill="#509645"/>
<ellipse rx="2" ry="3" transform="matrix(0.611554 0.791203 0.791203 -0.611554 194.431 305.941)" fill="#66A75C"/>
<ellipse rx="3" ry="2" transform="matrix(0.611554 0.791203 0.791203 -0.611554 189.504 311.013)" fill="#509645"/>
<ellipse rx="3" ry="3.5" transform="matrix(-0.503778 0.863833 0.863833 0.503778 159.265 120.961)" fill="#66A75C"/>
<circle cx="259" cy="7" r="4" fill="#609D56"/>
<ellipse cx="267" cy="5.5" rx="7" ry="2.5" fill="#509645"/>
<ellipse cx="263" cy="10" rx="2" ry="3" fill="#66A75C"/>
<ellipse cx="264" cy="3" rx="3" ry="2" fill="#509645"/>
<circle cx="139" cy="7" r="4" fill="#609D56"/>
<ellipse cx="147" cy="5.5" rx="7" ry="2.5" fill="#509645"/>
<ellipse cx="143" cy="10" rx="2" ry="3" fill="#66A75C"/>
<ellipse cx="144" cy="3" rx="3" ry="2" fill="#509645"/>
<circle cx="144" cy="315" r="4" fill="#609D56"/>
<ellipse cx="152" cy="313.5" rx="7" ry="2.5" fill="#509645"/>
<ellipse cx="148" cy="318" rx="2" ry="3" fill="#66A75C"/>
<ellipse cx="149" cy="311" rx="3" ry="2" fill="#509645"/>
<circle cx="152" cy="233" r="4" fill="#609D56"/>
<ellipse cx="160" cy="231.5" rx="7" ry="2.5" fill="#509645"/>
<ellipse cx="156" cy="236" rx="2" ry="3" fill="#66A75C"/>
<ellipse cx="157" cy="229" rx="3" ry="2" fill="#509645"/>
<circle cx="269" cy="144" r="4" fill="#609D56"/>
<ellipse cx="277" cy="142.5" rx="7" ry="2.5" fill="#509645"/>
<ellipse cx="273" cy="147" rx="2" ry="3" fill="#66A75C"/>
<ellipse cx="274" cy="140" rx="3" ry="2" fill="#509645"/>
<circle cx="245" cy="181" r="4" fill="#609D56"/>
<ellipse cx="253" cy="179.5" rx="7" ry="2.5" fill="#509645"/>
<ellipse cx="249" cy="184" rx="2" ry="3" fill="#66A75C"/>
<ellipse cx="250" cy="177" rx="3" ry="2" fill="#509645"/>
<circle r="4" transform="matrix(1 0 0 -1 53 125)" fill="#609D56"/>
<ellipse rx="7" ry="2.5" transform="matrix(1 0 0 -1 61 126.5)" fill="#509645"/>
<ellipse rx="2" ry="3" transform="matrix(1 0 0 -1 57 122)" fill="#66A75C"/>
<ellipse rx="3" ry="2" transform="matrix(1 0 0 -1 58 129)" fill="#509645"/>
<circle r="4" transform="matrix(-1 0 0 1 157 156)" fill="#609D56"/>
<ellipse rx="7" ry="2.5" transform="matrix(-1 0 0 1 149 154.5)" fill="#509645"/>
<ellipse rx="2" ry="3" transform="matrix(-1 0 0 1 153 159)" fill="#66A75C"/>
<ellipse rx="3" ry="2" transform="matrix(-1 0 0 1 152 152)" fill="#509645"/>
<circle cx="145" cy="120" r="4" fill="#609D56"/>
<ellipse cx="153" cy="118.5" rx="7" ry="2.5" fill="#509645"/>
<ellipse cx="149" cy="123" rx="2" ry="3" fill="#66A75C"/>
<ellipse cx="150" cy="116" rx="3" ry="2" fill="#509645"/>
<circle cx="114" cy="126" r="4" fill="#609D56"/>
<ellipse cx="122" cy="124.5" rx="7" ry="2.5" fill="#509645"/>
<ellipse cx="118" cy="129" rx="2" ry="3" fill="#66A75C"/>
<ellipse cx="119" cy="122" rx="3" ry="2" fill="#509645"/>
<circle cx="283" cy="350" r="4" transform="rotate(-180 283 350)" fill="#609D56"/>
<ellipse cx="275" cy="351.5" rx="7" ry="2.5" transform="rotate(-180 275 351.5)" fill="#509645"/>
<ellipse cx="279" cy="347" rx="2" ry="3" transform="rotate(-180 279 347)" fill="#66A75C"/>
<ellipse cx="278" cy="354" rx="3" ry="2" transform="rotate(-180 278 354)" fill="#509645"/>
<circle r="4" transform="matrix(-1 0 0 1 310 125)" fill="#609D56"/>
<ellipse rx="7" ry="2.5" transform="matrix(-1 0 0 1 302 123.5)" fill="#509645"/>
<ellipse rx="2" ry="3" transform="matrix(-1 0 0 1 306 128)" fill="#66A75C"/>
<ellipse rx="3" ry="2" transform="matrix(-1 0 0 1 305 121)" fill="#509645"/>
<circle cx="312" cy="221" r="4" fill="#609D56"/>
<ellipse cx="320" cy="219.5" rx="7" ry="2.5" fill="#509645"/>
<ellipse cx="316" cy="224" rx="2" ry="3" fill="#66A75C"/>
<ellipse cx="317" cy="217" rx="3" ry="2" fill="#509645"/>
<circle cx="47" cy="291" r="4" fill="#609D56"/>
<ellipse cx="55" cy="289.5" rx="7" ry="2.5" fill="#509645"/>
<ellipse cx="51" cy="294" rx="2" ry="3" fill="#66A75C"/>
<ellipse cx="52" cy="287" rx="3" ry="2" fill="#509645"/>
<circle cx="41" cy="192" r="4" fill="#609D56"/>
<ellipse cx="49" cy="190.5" rx="7" ry="2.5" fill="#509645"/>
<ellipse cx="45" cy="195" rx="2" ry="3" fill="#66A75C"/>
<ellipse cx="46" cy="188" rx="3" ry="2" fill="#509645"/>
<ellipse cx="111.5" cy="132" rx="3.5" ry="8" fill="#509645"/>
<path d="M123.5 128C123.5 130.209 121.038 132 118 132C114.962 132 112.5 130.209 112.5 128C112.5 125.791 114.962 124 118 124C121.038 124 123.5 125.791 123.5 128Z" fill="#609D56"/>
<ellipse cx="114" cy="131.5" rx="3" ry="3.5" fill="#66A75C"/>
<ellipse rx="3.5" ry="8" transform="matrix(-1 0 0 1 168 130)" fill="#509645"/>
<path d="M156 126C156 128.209 158.462 130 161.5 130C164.538 130 167 128.209 167 126C167 123.791 164.538 122 161.5 122C158.462 122 156 123.791 156 126Z" fill="#609D56"/>
<ellipse rx="3" ry="3.5" transform="matrix(-1 0 0 1 165.5 129.5)" fill="#66A75C"/>
<ellipse rx="3.5" ry="8" transform="matrix(1 0 0 -1 129.5 279)" fill="#509645"/>
<path d="M141.5 283C141.5 280.791 139.038 279 136 279C132.962 279 130.5 280.791 130.5 283C130.5 285.209 132.962 287 136 287C139.038 287 141.5 285.209 141.5 283Z" fill="#609D56"/>
<ellipse rx="3" ry="3.5" transform="matrix(1 0 0 -1 132 279.5)" fill="#66A75C"/>
<ellipse rx="3.5" ry="8" transform="matrix(-1 0 0 1 127 123)" fill="#509645"/>
<path d="M115 119C115 121.209 117.462 123 120.5 123C123.538 123 126 121.209 126 119C126 116.791 123.538 115 120.5 115C117.462 115 115 116.791 115 119Z" fill="#609D56"/>
<ellipse rx="3" ry="3.5" transform="matrix(-1 0 0 1 124.5 122.5)" fill="#66A75C"/>
<ellipse cx="131.5" cy="123" rx="3.5" ry="8" fill="#509645"/>
<ellipse cx="104.5" cy="125" rx="3.5" ry="8" fill="#509645"/>
<path d="M116.5 121C116.5 123.209 114.038 125 111 125C107.962 125 105.5 123.209 105.5 121C105.5 118.791 107.962 117 111 117C114.038 117 116.5 118.791 116.5 121Z" fill="#609D56"/>
<ellipse cx="273.5" cy="347" rx="3.5" ry="8" fill="#509645"/>
<path d="M285.5 343C285.5 345.209 283.038 347 280 347C276.962 347 274.5 345.209 274.5 343C274.5 340.791 276.962 339 280 339C283.038 339 285.5 340.791 285.5 343Z" fill="#609D56"/>
<ellipse cx="276" cy="346.5" rx="3" ry="3.5" fill="#66A75C"/>
<ellipse rx="3.5" ry="8" transform="matrix(-1 0 0 1 273 306)" fill="#509645"/>
<path d="M261 302C261 304.209 263.462 306 266.5 306C269.538 306 272 304.209 272 302C272 299.791 269.538 298 266.5 298C263.462 298 261 299.791 261 302Z" fill="#609D56"/>
<ellipse rx="3" ry="3.5" transform="matrix(-1 0 0 1 270.5 305.5)" fill="#66A75C"/>
<ellipse cx="127.5" cy="269" rx="3.5" ry="8" fill="#509645"/>
<path d="M139.5 265C139.5 267.209 137.038 269 134 269C130.962 269 128.5 267.209 128.5 265C128.5 262.791 130.962 261 134 261C137.038 261 139.5 262.791 139.5 265Z" fill="#609D56"/>
<ellipse cx="130" cy="268.5" rx="3" ry="3.5" fill="#66A75C"/>
<ellipse cx="219.5" cy="152" rx="3.5" ry="8" fill="#509645"/>
<path d="M231.5 148C231.5 150.209 229.038 152 226 152C222.962 152 220.5 150.209 220.5 148C220.5 145.791 222.962 144 226 144C229.038 144 231.5 145.791 231.5 148Z" fill="#609D56"/>
<ellipse cx="222" cy="151.5" rx="3" ry="3.5" fill="#66A75C"/>
<ellipse cx="147.28" cy="116.199" rx="3.5" ry="8" transform="rotate(84.891 147.28 116.199)" fill="#509645"/>
<path d="M152.333 127.795C150.132 127.991 148.129 125.698 147.859 122.673C147.588 119.647 149.153 117.035 151.353 116.838C153.553 116.642 155.556 118.935 155.827 121.96C156.097 124.986 154.533 127.598 152.333 127.795Z" fill="#609D56"/>
<ellipse cx="148.001" cy="118.644" rx="3" ry="3.5" transform="rotate(84.891 148.001 118.644)" fill="#66A75C"/>
<ellipse cx="253.5" cy="121" rx="3.5" ry="8" fill="#509645"/>
<path d="M265.5 117C265.5 119.209 263.038 121 260 121C256.962 121 254.5 119.209 254.5 117C254.5 114.791 256.962 113 260 113C263.038 113 265.5 114.791 265.5 117Z" fill="#609D56"/>
<ellipse cx="256" cy="120.5" rx="3" ry="3.5" fill="#66A75C"/>
<ellipse cx="270.5" cy="134" rx="3.5" ry="8" fill="#509645"/>
<path d="M282.5 130C282.5 132.209 280.038 134 277 134C273.962 134 271.5 132.209 271.5 130C271.5 127.791 273.962 126 277 126C280.038 126 282.5 127.791 282.5 130Z" fill="#609D56"/>
<ellipse cx="273" cy="133.5" rx="3" ry="3.5" fill="#66A75C"/>
<ellipse cx="252.5" cy="178" rx="3.5" ry="8" fill="#509645"/>
<path d="M264.5 174C264.5 176.209 262.038 178 259 178C255.962 178 253.5 176.209 253.5 174C253.5 171.791 255.962 170 259 170C262.038 170 264.5 171.791 264.5 174Z" fill="#609D56"/>
<ellipse cx="255" cy="177.5" rx="3" ry="3.5" fill="#66A75C"/>
<ellipse cx="143.5" cy="232" rx="3.5" ry="8" fill="#509645"/>
<path d="M155.5 228C155.5 230.209 153.038 232 150 232C146.962 232 144.5 230.209 144.5 228C144.5 225.791 146.962 224 150 224C153.038 224 155.5 225.791 155.5 228Z" fill="#609D56"/>
<ellipse cx="146" cy="231.5" rx="3" ry="3.5" fill="#66A75C"/>
<ellipse cx="245.5" cy="9" rx="3.5" ry="8" fill="#509645"/>
<path d="M257.5 5C257.5 7.20914 255.038 9 252 9C248.962 9 246.5 7.20914 246.5 5C246.5 2.79086 248.962 1 252 1C255.038 1 257.5 2.79086 257.5 5Z" fill="#609D56"/>
<ellipse cx="248" cy="8.5" rx="3" ry="3.5" fill="#66A75C"/>
<ellipse cx="140.5" cy="16" rx="3.5" ry="8" fill="#509645"/>
<path d="M152.5 12C152.5 14.2091 150.038 16 147 16C143.962 16 141.5 14.2091 141.5 12C141.5 9.79086 143.962 8 147 8C150.038 8 152.5 9.79086 152.5 12Z" fill="#609D56"/>
<ellipse cx="143" cy="15.5" rx="3" ry="3.5" fill="#66A75C"/>
<ellipse rx="3.5" ry="8" transform="matrix(0.167373 0.985894 0.985894 -0.167373 54.473 121.79)" fill="#509645"/>
<path d="M52.5379 134.29C54.7158 133.92 56.0693 131.193 55.5609 128.198C55.0525 125.203 52.8747 123.075 50.6968 123.445C48.5188 123.815 47.1653 126.542 47.6737 129.537C48.1822 132.532 50.3599 134.66 52.5379 134.29Z" fill="#609D56"/>
<ellipse rx="3" ry="3.5" transform="matrix(0.167373 0.985894 0.985894 -0.167373 54.3984 124.338)" fill="#66A75C"/>
<ellipse cx="47" cy="283" rx="3.5" ry="8" transform="rotate(-180 47 283)" fill="#509645"/>
<path d="M35 287C35 284.791 37.4624 283 40.5 283C43.5376 283 46 284.791 46 287C46 289.209 43.5376 291 40.5 291C37.4624 291 35 289.209 35 287Z" fill="#609D56"/>
<ellipse cx="44.5" cy="283.5" rx="3" ry="3.5" transform="rotate(-180 44.5 283.5)" fill="#66A75C"/>
<ellipse cx="107" cy="124.5" rx="3" ry="3.5" fill="#66A75C"/>
<path d="M143.5 119C143.5 121.209 141.038 123 138 123C134.962 123 132.5 121.209 132.5 119C132.5 116.791 134.962 115 138 115C141.038 115 143.5 116.791 143.5 119Z" fill="#609D56"/>
<ellipse cx="134" cy="122.5" rx="3" ry="3.5" fill="#66A75C"/>
<circle cx="263" cy="120" r="4" fill="#609D56"/>
<ellipse cx="271" cy="118.5" rx="7" ry="2.5" fill="#509645"/>
<ellipse cx="267" cy="123" rx="2" ry="3" fill="#66A75C"/>
<ellipse cx="268" cy="116" rx="3" ry="2" fill="#509645"/>
<circle cx="227.095" cy="139.063" r="4" transform="rotate(90.9121 227.095 139.063)" fill="#609D56"/>
<ellipse cx="228.467" cy="147.086" rx="7" ry="2.5" transform="rotate(90.9121 228.467 147.086)" fill="#509645"/>
<ellipse cx="224.031" cy="143.015" rx="2" ry="3" transform="rotate(90.9121 224.031 143.015)" fill="#66A75C"/>
<ellipse cx="231.015" cy="144.126" rx="3" ry="2" transform="rotate(90.9121 231.015 144.126)" fill="#509645"/>
<circle cx="189" cy="150" r="4" fill="#609D56"/>
<ellipse cx="197" cy="148.5" rx="7" ry="2.5" fill="#509645"/>
<ellipse cx="193" cy="153" rx="2" ry="3" fill="#66A75C"/>
<ellipse cx="194" cy="146" rx="3" ry="2" fill="#509645"/>
<circle cx="266" cy="174" r="4" fill="#609D56"/>
<ellipse cx="274" cy="172.5" rx="7" ry="2.5" fill="#509645"/>
<ellipse cx="266" cy="127" rx="3.5" ry="8" transform="rotate(-180 266 127)" fill="#509645"/>
<path d="M254 131C254 128.791 256.462 127 259.5 127C262.538 127 265 128.791 265 131C265 133.209 262.538 135 259.5 135C256.462 135 254 133.209 254 131Z" fill="#609D56"/>
<ellipse cx="263.5" cy="127.5" rx="3" ry="3.5" transform="rotate(-180 263.5 127.5)" fill="#66A75C"/>
<ellipse cx="143" cy="225" rx="3.5" ry="8" transform="rotate(-180 143 225)" fill="#509645"/>
<path d="M131 229C131 226.791 133.462 225 136.5 225C139.538 225 142 226.791 142 229C142 231.209 139.538 233 136.5 233C133.462 233 131 231.209 131 229Z" fill="#609D56"/>
<ellipse cx="140.5" cy="225.5" rx="3" ry="3.5" transform="rotate(-180 140.5 225.5)" fill="#66A75C"/>
<ellipse cx="164" cy="417" rx="3.5" ry="8" transform="rotate(-180 164 417)" fill="#509645"/>
<path d="M152 421C152 418.791 154.462 417 157.5 417C160.538 417 163 418.791 163 421C163 423.209 160.538 425 157.5 425C154.462 425 152 423.209 152 421Z" fill="#609D56"/>
<ellipse cx="161.5" cy="417.5" rx="3" ry="3.5" transform="rotate(-180 161.5 417.5)" fill="#66A75C"/>
<ellipse rx="3.5" ry="8" transform="matrix(-1 0 0 1 163 9)" fill="#509645"/>
<path d="M151 5C151 7.20914 153.462 9 156.5 9C159.538 9 162 7.20914 162 5C162 2.79086 159.538 1 156.5 1C153.462 1 151 2.79086 151 5Z" fill="#609D56"/>
<ellipse rx="3" ry="3.5" transform="matrix(-1 0 0 1 160.5 8.5)" fill="#66A75C"/>
<ellipse rx="3.5" ry="8" transform="matrix(-1 0 0 1 97 175)" fill="#509645"/>
<path d="M85 171C85 173.209 87.4624 175 90.5 175C93.5376 175 96 173.209 96 171C96 168.791 93.5376 167 90.5 167C87.4624 167 85 168.791 85 171Z" fill="#609D56"/>
<ellipse rx="3" ry="3.5" transform="matrix(-1 0 0 1 94.5 174.5)" fill="#66A75C"/>
<circle cx="198.662" cy="151.441" r="4" transform="rotate(96.731 198.662 151.441)" fill="#609D56"/>
<ellipse cx="199.214" cy="159.562" rx="7" ry="2.5" transform="rotate(96.731 199.214 159.562)" fill="#509645"/>
<ellipse cx="195.214" cy="155.062" rx="2" ry="3" transform="rotate(96.731 195.214 155.062)" fill="#66A75C"/>
<ellipse cx="202.048" cy="156.876" rx="3" ry="2" transform="rotate(96.731 202.048 156.876)" fill="#509645"/>
<ellipse cx="270" cy="177" rx="2" ry="3" fill="#66A75C"/>
<ellipse cx="271" cy="170" rx="3" ry="2" fill="#509645"/>
<circle cx="130.247" cy="125.832" r="4" transform="rotate(103.663 130.247 125.832)" fill="#609D56"/>
<ellipse cx="129.815" cy="133.96" rx="7" ry="2.5" transform="rotate(103.663 129.815 133.96)" fill="#509645"/>
<ellipse cx="126.388" cy="129.01" rx="2" ry="3" transform="rotate(103.663 126.388 129.01)" fill="#66A75C"/>
<ellipse cx="132.953" cy="131.635" rx="3" ry="2" transform="rotate(103.663 132.953 131.635)" fill="#509645"/>
<circle r="4" transform="matrix(0.236207 0.971703 0.971703 -0.236207 139.358 24.8316)" fill="#609D56"/>
<ellipse rx="7" ry="2.5" transform="matrix(0.236207 0.971703 0.971703 -0.236207 139.79 32.9596)" fill="#509645"/>
<ellipse rx="2" ry="3" transform="matrix(0.236207 0.971703 0.971703 -0.236207 143.218 28.0098)" fill="#66A75C"/>
<ellipse rx="3" ry="2" transform="matrix(0.236207 0.971703 0.971703 -0.236207 136.652 30.635)" fill="#509645"/>
<circle r="4" transform="matrix(-0.997128 0.0757298 0.0757298 0.997128 211.26 5.83129)" fill="#609D56"/>
<ellipse rx="7" ry="2.5" transform="matrix(-0.997128 0.0757298 0.0757298 0.997128 203.169 4.94145)" fill="#509645"/>
<ellipse rx="2" ry="3" transform="matrix(-0.997128 0.0757298 0.0757298 0.997128 207.499 9.1256)" fill="#66A75C"/>
<ellipse rx="3" ry="2" transform="matrix(-0.997128 0.0757298 0.0757298 0.997128 205.971 2.22145)" fill="#509645"/>
<circle r="4" transform="matrix(0.236207 0.971703 0.971703 -0.236207 137.358 11.8316)" fill="#609D56"/>
<ellipse rx="7" ry="2.5" transform="matrix(0.236207 0.971703 0.971703 -0.236207 137.79 19.9596)" fill="#509645"/>
<ellipse rx="2" ry="3" transform="matrix(0.236207 0.971703 0.971703 -0.236207 141.218 15.0098)" fill="#66A75C"/>
<ellipse rx="3" ry="2" transform="matrix(0.236207 0.971703 0.971703 -0.236207 134.652 17.635)" fill="#509645"/>
<circle cx="240.247" cy="10.8316" r="4" transform="rotate(103.663 240.247 10.8316)" fill="#609D56"/>
<ellipse cx="239.815" cy="18.9596" rx="7" ry="2.5" transform="rotate(103.663 239.815 18.9596)" fill="#509645"/>
<ellipse cx="236.388" cy="14.0098" rx="2" ry="3" transform="rotate(103.663 236.388 14.0098)" fill="#66A75C"/>
<ellipse cx="242.953" cy="16.635" rx="3" ry="2" transform="rotate(103.663 242.953 16.635)" fill="#509645"/>
<circle cx="285.247" cy="227.832" r="4" transform="rotate(103.663 285.247 227.832)" fill="#609D56"/>
<ellipse cx="284.815" cy="235.96" rx="7" ry="2.5" transform="rotate(103.663 284.815 235.96)" fill="#509645"/>
<ellipse cx="281.388" cy="231.01" rx="2" ry="3" transform="rotate(103.663 281.388 231.01)" fill="#66A75C"/>
<ellipse cx="287.953" cy="233.635" rx="3" ry="2" transform="rotate(103.663 287.953 233.635)" fill="#509645"/>
<circle r="4" transform="matrix(-0.236207 -0.971703 -0.971703 0.236207 367.247 140.52)" fill="#609D56"/>
<ellipse rx="7" ry="2.5" transform="matrix(-0.236207 -0.971703 -0.971703 0.236207 366.815 132.392)" fill="#509645"/>
<ellipse rx="2" ry="3" transform="matrix(-0.236207 -0.971703 -0.971703 0.236207 363.388 137.342)" fill="#66A75C"/>
<ellipse rx="3" ry="2" transform="matrix(-0.236207 -0.971703 -0.971703 0.236207 369.953 134.717)" fill="#509645"/>
<circle cx="371.247" cy="135.832" r="4" transform="rotate(103.663 371.247 135.832)" fill="#609D56"/>
<ellipse cx="370.815" cy="143.96" rx="7" ry="2.5" transform="rotate(103.663 370.815 143.96)" fill="#509645"/>
<ellipse cx="367.388" cy="139.01" rx="2" ry="3" transform="rotate(103.663 367.388 139.01)" fill="#66A75C"/>
<ellipse cx="373.953" cy="141.635" rx="3" ry="2" transform="rotate(103.663 373.953 141.635)" fill="#509645"/>
<circle cx="49.2475" cy="194.832" r="4" transform="rotate(103.663 49.2475 194.832)" fill="#609D56"/>
<ellipse cx="48.8154" cy="202.96" rx="7" ry="2.5" transform="rotate(103.663 48.8154 202.96)" fill="#509645"/>
<ellipse cx="45.3875" cy="198.01" rx="2" ry="3" transform="rotate(103.663 45.3875 198.01)" fill="#66A75C"/>
<ellipse cx="51.9532" cy="200.635" rx="3" ry="2" transform="rotate(103.663 51.9532 200.635)" fill="#509645"/>
<circle cx="152.247" cy="317.832" r="4" transform="rotate(103.663 152.247 317.832)" fill="#609D56"/>
<ellipse cx="151.815" cy="325.96" rx="7" ry="2.5" transform="rotate(103.663 151.815 325.96)" fill="#509645"/>
<ellipse cx="148.388" cy="321.01" rx="2" ry="3" transform="rotate(103.663 148.388 321.01)" fill="#66A75C"/>
<ellipse cx="154.953" cy="323.635" rx="3" ry="2" transform="rotate(103.663 154.953 323.635)" fill="#509645"/>
<circle cx="265.247" cy="304.832" r="4" transform="rotate(103.663 265.247 304.832)" fill="#609D56"/>
<ellipse cx="264.815" cy="312.96" rx="7" ry="2.5" transform="rotate(103.663 264.815 312.96)" fill="#509645"/>
<ellipse cx="261.388" cy="308.01" rx="2" ry="3" transform="rotate(103.663 261.388 308.01)" fill="#66A75C"/>
<ellipse cx="267.953" cy="310.635" rx="3" ry="2" transform="rotate(103.663 267.953 310.635)" fill="#509645"/>
<circle cx="324.247" cy="211.832" r="4" transform="rotate(103.663 324.247 211.832)" fill="#609D56"/>
<ellipse cx="323.815" cy="219.96" rx="7" ry="2.5" transform="rotate(103.663 323.815 219.96)" fill="#509645"/>
<ellipse cx="320.388" cy="215.01" rx="2" ry="3" transform="rotate(103.663 320.388 215.01)" fill="#66A75C"/>
<ellipse cx="326.953" cy="217.635" rx="3" ry="2" transform="rotate(103.663 326.953 217.635)" fill="#509645"/>
<circle cx="308.247" cy="118.832" r="4" transform="rotate(103.663 308.247 118.832)" fill="#609D56"/>
<ellipse cx="307.815" cy="126.96" rx="7" ry="2.5" transform="rotate(103.663 307.815 126.96)" fill="#509645"/>
<ellipse cx="304.388" cy="122.01" rx="2" ry="3" transform="rotate(103.663 304.388 122.01)" fill="#66A75C"/>
<ellipse cx="310.953" cy="124.635" rx="3" ry="2" transform="rotate(103.663 310.953 124.635)" fill="#509645"/>
<circle cx="310.247" cy="125.832" r="4" transform="rotate(103.663 310.247 125.832)" fill="#609D56"/>
<ellipse cx="309.815" cy="133.96" rx="7" ry="2.5" transform="rotate(103.663 309.815 133.96)" fill="#509645"/>
<ellipse cx="306.388" cy="129.01" rx="2" ry="3" transform="rotate(103.663 306.388 129.01)" fill="#66A75C"/>
<ellipse cx="312.953" cy="131.635" rx="3" ry="2" transform="rotate(103.663 312.953 131.635)" fill="#509645"/>
<circle cx="194.247" cy="158.832" r="4" transform="rotate(103.663 194.247 158.832)" fill="#609D56"/>
<ellipse cx="193.815" cy="166.96" rx="7" ry="2.5" transform="rotate(103.663 193.815 166.96)" fill="#509645"/>
<ellipse cx="190.388" cy="162.01" rx="2" ry="3" transform="rotate(103.663 190.388 162.01)" fill="#66A75C"/>
<ellipse cx="196.953" cy="164.635" rx="3" ry="2" transform="rotate(103.663 196.953 164.635)" fill="#509645"/>
<circle cx="276.247" cy="171.832" r="4" transform="rotate(103.663 276.247 171.832)" fill="#609D56"/>
<ellipse cx="275.815" cy="179.96" rx="7" ry="2.5" transform="rotate(103.663 275.815 179.96)" fill="#509645"/>
<ellipse cx="272.388" cy="175.01" rx="2" ry="3" transform="rotate(103.663 272.388 175.01)" fill="#66A75C"/>
<ellipse cx="278.953" cy="177.635" rx="3" ry="2" transform="rotate(103.663 278.953 177.635)" fill="#509645"/>
<circle cx="130.247" cy="125.832" r="4" transform="rotate(103.663 130.247 125.832)" fill="#609D56"/>
<ellipse cx="129.815" cy="133.96" rx="7" ry="2.5" transform="rotate(103.663 129.815 133.96)" fill="#509645"/>
<ellipse cx="126.388" cy="129.01" rx="2" ry="3" transform="rotate(103.663 126.388 129.01)" fill="#66A75C"/>
<ellipse cx="132.953" cy="131.635" rx="3" ry="2" transform="rotate(103.663 132.953 131.635)" fill="#509645"/>
<circle cx="178.247" cy="205.832" r="4" transform="rotate(103.663 178.247 205.832)" fill="#609D56"/>
<ellipse cx="177.815" cy="213.96" rx="7" ry="2.5" transform="rotate(103.663 177.815 213.96)" fill="#509645"/>
<ellipse cx="174.388" cy="209.01" rx="2" ry="3" transform="rotate(103.663 174.388 209.01)" fill="#66A75C"/>
<ellipse cx="180.953" cy="211.635" rx="3" ry="2" transform="rotate(103.663 180.953 211.635)" fill="#509645"/>
<circle cx="330.958" cy="170.081" r="4" transform="rotate(88.8272 330.958 170.081)" fill="#609D56"/>
<ellipse cx="332.621" cy="178.049" rx="7" ry="2.5" transform="rotate(88.8272 332.621 178.049)" fill="#509645"/>
<ellipse cx="328.04" cy="174.142" rx="2" ry="3" transform="rotate(88.8272 328.04 174.142)" fill="#66A75C"/>
<ellipse cx="335.059" cy="174.998" rx="3" ry="2" transform="rotate(88.8272 335.059 174.998)" fill="#509645"/>
<circle cx="232.247" cy="131.832" r="4" transform="rotate(103.663 232.247 131.832)" fill="#609D56"/>
<ellipse cx="231.815" cy="139.96" rx="7" ry="2.5" transform="rotate(103.663 231.815 139.96)" fill="#509645"/>
<ellipse cx="228.388" cy="135.01" rx="2" ry="3" transform="rotate(103.663 228.388 135.01)" fill="#66A75C"/>
<ellipse cx="234.953" cy="137.635" rx="3" ry="2" transform="rotate(103.663 234.953 137.635)" fill="#509645"/>
<circle cx="176" cy="221" r="4" fill="#609D56"/>
<ellipse cx="184" cy="219.5" rx="7" ry="2.5" fill="#509645"/>
<ellipse cx="180" cy="224" rx="2" ry="3" fill="#66A75C"/>
<ellipse cx="181" cy="217" rx="3" ry="2" fill="#509645"/>
<circle cx="258" cy="124" r="4" fill="#609D56"/>
<ellipse cx="266" cy="122.5" rx="7" ry="2.5" fill="#509645"/>
<ellipse cx="262" cy="127" rx="2" ry="3" fill="#66A75C"/>
<ellipse cx="263" cy="120" rx="3" ry="2" fill="#509645"/>
<circle r="4" transform="matrix(-1 0 0 1 283 126)" fill="#609D56"/>
<ellipse rx="7" ry="2.5" transform="matrix(-1 0 0 1 275 124.5)" fill="#509645"/>
<ellipse rx="2" ry="3" transform="matrix(-1 0 0 1 279 129)" fill="#66A75C"/>
<ellipse rx="3" ry="2" transform="matrix(-1 0 0 1 278 122)" fill="#509645"/>
<circle r="4" transform="matrix(1 0 0 -1 288 125)" fill="#609D56"/>
<ellipse rx="7" ry="2.5" transform="matrix(1 0 0 -1 296 126.5)" fill="#509645"/>
<ellipse rx="2" ry="3" transform="matrix(1 0 0 -1 292 122)" fill="#66A75C"/>
<ellipse rx="3" ry="2" transform="matrix(1 0 0 -1 293 129)" fill="#509645"/>
<circle cx="275" cy="120" r="4" fill="#609D56"/>
<ellipse cx="283" cy="118.5" rx="7" ry="2.5" fill="#509645"/>
<ellipse cx="279" cy="123" rx="2" ry="3" fill="#66A75C"/>
<ellipse cx="280" cy="116" rx="3" ry="2" fill="#509645"/>
<circle cx="285" cy="123" r="4" fill="#609D56"/>
<ellipse cx="293" cy="121.5" rx="7" ry="2.5" fill="#509645"/>
<ellipse cx="289" cy="126" rx="2" ry="3" fill="#66A75C"/>
<ellipse cx="290" cy="119" rx="3" ry="2" fill="#509645"/>
<circle r="4" transform="matrix(-1 0 0 1 301 122)" fill="#609D56"/>
<ellipse rx="7" ry="2.5" transform="matrix(-1 0 0 1 293 120.5)" fill="#509645"/>
<ellipse rx="2" ry="3" transform="matrix(-1 0 0 1 297 125)" fill="#66A75C"/>
<ellipse rx="3" ry="2" transform="matrix(-1 0 0 1 296 118)" fill="#509645"/>
<circle cx="270" cy="123" r="4" fill="#609D56"/>
<ellipse cx="278" cy="121.5" rx="7" ry="2.5" fill="#509645"/>
<ellipse cx="274" cy="126" rx="2" ry="3" fill="#66A75C"/>
<ellipse cx="275" cy="119" rx="3" ry="2" fill="#509645"/>
<circle cx="320" cy="224" r="4" fill="#609D56"/>
<ellipse cx="328" cy="222.5" rx="7" ry="2.5" fill="#509645"/>
<ellipse cx="282.5" cy="125" rx="3.5" ry="8" fill="#509645"/>
<path d="M294.5 121C294.5 123.209 292.038 125 289 125C285.962 125 283.5 123.209 283.5 121C283.5 118.791 285.962 117 289 117C292.038 117 294.5 118.791 294.5 121Z" fill="#609D56"/>
<ellipse cx="285" cy="124.5" rx="3" ry="3.5" fill="#66A75C"/>
<ellipse cx="324" cy="227" rx="2" ry="3" fill="#66A75C"/>
<ellipse cx="142.728" cy="22.5862" rx="3.5" ry="8" transform="rotate(115.331 142.728 22.5862)" fill="#509645"/>
<path d="M141.21 35.1438C139.213 34.1987 138.648 31.2068 139.947 28.4613C141.247 25.7157 143.919 24.2563 145.916 25.2014C147.913 26.1466 148.478 29.1385 147.178 31.884C145.879 34.6295 143.206 36.089 141.21 35.1438Z" fill="#609D56"/>
<ellipse cx="142.111" cy="25.0598" rx="3" ry="3.5" transform="rotate(115.331 142.111 25.0598)" fill="#66A75C"/>
<ellipse cx="147.999" cy="10.0401" rx="3.5" ry="8" transform="rotate(179.334 147.999 10.0401)" fill="#509645"/>
<path d="M136.046 14.1793C136.021 11.9703 138.462 10.151 141.5 10.1157C144.537 10.0804 147.02 11.8425 147.046 14.0515C147.071 16.2605 144.63 18.0798 141.593 18.1151C138.555 18.1504 136.072 16.3883 136.046 14.1793Z" fill="#609D56"/>
<ellipse cx="145.505" cy="10.5692" rx="3" ry="3.5" transform="rotate(179.334 145.505 10.5692)" fill="#66A75C"/>
<ellipse cx="140.5" cy="41" rx="3.5" ry="8" fill="#509645"/>
<path d="M152.5 37C152.5 39.2091 150.038 41 147 41C143.962 41 141.5 39.2091 141.5 37C141.5 34.7909 143.962 33 147 33C150.038 33 152.5 34.7909 152.5 37Z" fill="#609D56"/>
<ellipse cx="143" cy="40.5" rx="3" ry="3.5" fill="#66A75C"/>
<ellipse cx="352.557" cy="364.519" rx="3.5" ry="8" transform="rotate(36.3021 352.557 364.519)" fill="#509645"/>
<path d="M364.596 368.4C363.288 370.181 360.243 370.166 357.795 368.368C355.347 366.569 354.423 363.668 355.731 361.888C357.039 360.107 360.084 360.122 362.532 361.92C364.98 363.719 365.904 366.62 364.596 368.4Z" fill="#609D56"/>
<ellipse cx="354.868" cy="365.597" rx="3" ry="3.5" transform="rotate(36.3021 354.868 365.597)" fill="#66A75C"/>
<ellipse cx="220.5" cy="283" rx="3.5" ry="8" fill="#509645"/>
<path d="M232.5 279C232.5 281.209 230.038 283 227 283C223.962 283 221.5 281.209 221.5 279C221.5 276.791 223.962 275 227 275C230.038 275 232.5 276.791 232.5 279Z" fill="#609D56"/>
<ellipse cx="223" cy="282.5" rx="3" ry="3.5" fill="#66A75C"/>
<ellipse cx="139.085" cy="124.698" rx="3.5" ry="8" transform="rotate(88.5726 139.085 124.698)" fill="#509645"/>
<path d="M143.382 136.595C141.174 136.65 139.322 134.233 139.247 131.196C139.171 128.16 140.9 125.653 143.108 125.598C145.317 125.543 147.168 127.96 147.244 130.997C147.32 134.034 145.591 136.54 143.382 136.595Z" fill="#609D56"/>
<ellipse cx="139.647" cy="127.185" rx="3" ry="3.5" transform="rotate(88.5726 139.647 127.185)" fill="#66A75C"/>
<ellipse cx="126.5" cy="146" rx="3.5" ry="8" fill="#509645"/>
<path d="M138.5 142C138.5 144.209 136.038 146 133 146C129.962 146 127.5 144.209 127.5 142C127.5 139.791 129.962 138 133 138C136.038 138 138.5 139.791 138.5 142Z" fill="#609D56"/>
<ellipse cx="129" cy="145.5" rx="3" ry="3.5" fill="#66A75C"/>
<ellipse cx="156.5" cy="331" rx="3.5" ry="8" fill="#509645"/>
<path d="M168.5 327C168.5 329.209 166.038 331 163 331C159.962 331 157.5 329.209 157.5 327C157.5 324.791 159.962 323 163 323C166.038 323 168.5 324.791 168.5 327Z" fill="#609D56"/>
<ellipse cx="159" cy="330.5" rx="3" ry="3.5" fill="#66A75C"/>
<ellipse cx="45.73" cy="212.544" rx="3.5" ry="8" transform="rotate(114.91 45.73 212.544)" fill="#509645"/>
<path d="M44.3036 225.112C42.2999 224.182 41.7128 221.194 42.9922 218.439C44.2716 215.684 46.933 214.205 48.9367 215.136C50.9403 216.066 51.5274 219.054 50.248 221.809C48.9686 224.564 46.3072 226.043 44.3036 225.112Z" fill="#609D56"/>
<ellipse cx="45.1305" cy="215.022" rx="3" ry="3.5" transform="rotate(114.91 45.1305 215.022)" fill="#66A75C"/>
<ellipse cx="44.5" cy="207" rx="3.5" ry="8" fill="#509645"/>
<path d="M56.5 203C56.5 205.209 54.0376 207 51 207C47.9624 207 45.5 205.209 45.5 203C45.5 200.791 47.9624 199 51 199C54.0376 199 56.5 200.791 56.5 203Z" fill="#609D56"/>
<ellipse cx="47" cy="206.5" rx="3" ry="3.5" fill="#66A75C"/>
<ellipse cx="40.5" cy="201" rx="3.5" ry="8" fill="#509645"/>
<path d="M52.5 197C52.5 199.209 50.0376 201 47 201C43.9624 201 41.5 199.209 41.5 197C41.5 194.791 43.9624 193 47 193C50.0376 193 52.5 194.791 52.5 197Z" fill="#609D56"/>
<ellipse cx="43" cy="200.5" rx="3" ry="3.5" fill="#66A75C"/>
<ellipse cx="335.47" cy="112.78" rx="3.5" ry="8" transform="rotate(99.5632 335.47 112.78)" fill="#509645"/>
<path d="M337.421 125.278C335.243 124.911 333.886 122.185 334.39 119.19C334.895 116.195 337.07 114.064 339.249 114.431C341.427 114.798 342.784 117.524 342.279 120.519C341.775 123.515 339.6 125.645 337.421 125.278Z" fill="#609D56"/>
<ellipse cx="335.548" cy="115.329" rx="3" ry="3.5" transform="rotate(99.5632 335.548 115.329)" fill="#66A75C"/>
<ellipse cx="329.5" cy="111" rx="3.5" ry="8" fill="#509645"/>
<path d="M341.5 107C341.5 109.209 339.038 111 336 111C332.962 111 330.5 109.209 330.5 107C330.5 104.791 332.962 103 336 103C339.038 103 341.5 104.791 341.5 107Z" fill="#609D56"/>
<ellipse cx="332" cy="110.5" rx="3" ry="3.5" fill="#66A75C"/>
<ellipse cx="310.5" cy="229" rx="3.5" ry="8" fill="#509645"/>
<path d="M322.5 225C322.5 227.209 320.038 229 317 229C313.962 229 311.5 227.209 311.5 225C311.5 222.791 313.962 221 317 221C320.038 221 322.5 222.791 322.5 225Z" fill="#609D56"/>
<ellipse cx="313" cy="228.5" rx="3" ry="3.5" fill="#66A75C"/>
<ellipse cx="316.5" cy="306" rx="3.5" ry="8" fill="#509645"/>
<path d="M328.5 302C328.5 304.209 326.038 306 323 306C319.962 306 317.5 304.209 317.5 302C317.5 299.791 319.962 298 323 298C326.038 298 328.5 299.791 328.5 302Z" fill="#609D56"/>
<ellipse cx="319" cy="305.5" rx="3" ry="3.5" fill="#66A75C"/>
<ellipse cx="59.5" cy="334" rx="3.5" ry="8" fill="#509645"/>
<path d="M71.5 330C71.5 332.209 69.0376 334 66 334C62.9624 334 60.5 332.209 60.5 330C60.5 327.791 62.9624 326 66 326C69.0376 326 71.5 327.791 71.5 330Z" fill="#609D56"/>
<ellipse cx="62" cy="333.5" rx="3" ry="3.5" fill="#66A75C"/>
<ellipse rx="3.5" ry="8" transform="matrix(1 0 0 -1 164.5 492)" fill="#509645"/>
<path d="M176.5 496C176.5 493.791 174.038 492 171 492C167.962 492 165.5 493.791 165.5 496C165.5 498.209 167.962 500 171 500C174.038 500 176.5 498.209 176.5 496Z" fill="#609D56"/>
<ellipse rx="3" ry="3.5" transform="matrix(1 0 0 -1 167 492.5)" fill="#66A75C"/>
<ellipse cx="227.5" cy="397" rx="3.5" ry="8" fill="#509645"/>
<path d="M239.5 393C239.5 395.209 237.038 397 234 397C230.962 397 228.5 395.209 228.5 393C228.5 390.791 230.962 389 234 389C237.038 389 239.5 390.791 239.5 393Z" fill="#609D56"/>
<ellipse cx="230" cy="396.5" rx="3" ry="3.5" fill="#66A75C"/>
<ellipse cx="325" cy="220" rx="3" ry="2" fill="#509645"/>
<circle cx="103" cy="132" r="4" fill="#609D56"/>
<ellipse cx="111" cy="130.5" rx="7" ry="2.5" fill="#509645"/>
<ellipse cx="107" cy="135" rx="2" ry="3" fill="#66A75C"/>
<ellipse cx="108" cy="128" rx="3" ry="2" fill="#509645"/>
<ellipse cx="92.5" cy="162" rx="3.5" ry="8" fill="#509645"/>
<path d="M104.5 158C104.5 160.209 102.038 162 99 162C95.9624 162 93.5 160.209 93.5 158C93.5 155.791 95.9624 154 99 154C102.038 154 104.5 155.791 104.5 158Z" fill="#609D56"/>
<ellipse cx="95" cy="161.5" rx="3" ry="3.5" fill="#66A75C"/>
<ellipse cx="197.287" cy="47.3193" rx="5" ry="2.5" transform="rotate(45.5267 197.287 47.3193)" fill="#9D9B9B"/>
<ellipse rx="5" ry="2.5" transform="matrix(-0.700576 0.713577 0.713577 0.700576 216.287 47.3193)" fill="#9D9B9B"/>
<path d="M126.333 121.117C129.98 122.07 137.339 118.753 129.033 104C116.915 113.412 122.212 120.039 126.333 121.117Z" fill="#FF8989"/>
<path d="M121.129 120.538C124.524 118.9 127.976 111.603 112.088 105.755C108.963 120.776 117.292 122.389 121.129 120.538Z" fill="#FF8989"/>
<path d="M116.365 124.008C118.431 120.855 117.63 112.823 101 115.996C106.061 130.481 114.03 127.572 116.365 124.008Z" fill="#FF8989"/>
<path d="M126.333 121.117C129.98 122.07 137.339 118.753 129.033 104C116.915 113.412 122.212 120.039 126.333 121.117Z" stroke="#F07272" stroke-width="3"/>
<path d="M121.129 120.538C124.524 118.9 127.976 111.603 112.088 105.755C108.963 120.776 117.292 122.389 121.129 120.538Z" stroke="#F07272" stroke-width="3"/>
<path d="M116.365 124.008C118.431 120.855 117.63 112.823 101 115.996C106.061 130.481 114.03 127.572 116.365 124.008Z" stroke="#F07272" stroke-width="3"/>
<defs>
<filter id="filter0_f" x="191.493" y="189.433" width="33.0787" height="41.1595" filterUnits="userSpaceOnUse" color-interpolation-filters="sRGB">
<feFlood flood-opacity="0" result="BackgroundImageFix"/>
<feBlend mode="normal" in="SourceGraphic" in2="BackgroundImageFix" result="shape"/>
<feGaussianBlur stdDeviation="2" result="effect1_foregroundBlur"/>
</filter>
<filter id="filter1_f" x="171.428" y="53.8224" width="69.6031" height="19.9474" filterUnits="userSpaceOnUse" color-interpolation-filters="sRGB">
<feFlood flood-opacity="0" result="BackgroundImageFix"/>
<feBlend mode="normal" in="SourceGraphic" in2="BackgroundImageFix" result="shape"/>
<feGaussianBlur stdDeviation="1" result="effect1_foregroundBlur"/>
</filter>
</defs>
</svg>
