<svg width="66" height="70" viewBox="0 0 66 70" fill="none" xmlns="http://www.w3.org/2000/svg">
<path d="M56.0419 2.28143L23.0258 37.1035L28.4317 40.589L45 23.5L52.5 27.5C55.6822 26.5 56.3399 24.4486 56.5 23.5L49.0786 19.03L51.8652 15.6306L60.1471 19.5787C63.3727 18.7095 63.7136 16.3087 63.4809 15.217L55.763 10.7774L60.7889 4.94104C60.2303 2.32085 57.3915 2.07622 56.0419 2.28143Z" fill="#C4C4C4" stroke="#9D9B9B" stroke-width="3"/>
<mask id="path-2-inside-1" fill="white">
<path d="M41 50C41 61.0457 31.8218 70 20.5 70C9.17816 70 0 61.0457 0 50C0 38.9543 9.17816 30 20.5 30C31.8218 30 41 38.9543 41 50ZM11.4313 50C11.4313 54.8863 15.4915 58.8475 20.5 58.8475C25.5085 58.8475 29.5687 54.8863 29.5687 50C29.5687 45.1137 25.5085 41.1525 20.5 41.1525C15.4915 41.1525 11.4313 45.1137 11.4313 50Z"/>
</mask>
<path d="M41 50C41 61.0457 31.8218 70 20.5 70C9.17816 70 0 61.0457 0 50C0 38.9543 9.17816 30 20.5 30C31.8218 30 41 38.9543 41 50ZM11.4313 50C11.4313 54.8863 15.4915 58.8475 20.5 58.8475C25.5085 58.8475 29.5687 54.8863 29.5687 50C29.5687 45.1137 25.5085 41.1525 20.5 41.1525C15.4915 41.1525 11.4313 45.1137 11.4313 50Z" fill="#C4C4C4" stroke="#9D9B9B" stroke-width="6" mask="url(#path-2-inside-1)"/>
<path d="M26.5 35L30 32L33.5 33L30 37L26.5 35Z" fill="#C4C4C4"/>
<path d="M19 33C17.5 33.5 7 34 3.5 46.5C8.27125 39.1058 11.724 36.2481 19 33Z" fill="white"/>
<path d="M56.5 3.99999L27.5 34.5C34.6667 28.6667 40 25 56.5 3.99999Z" fill="white"/>
</svg>
