<svg width="500" height="312" viewBox="0 0 500 312" fill="none" xmlns="http://www.w3.org/2000/svg">
<path d="M316.026 82.262C316.413 79.1412 318.06 76.3148 320.586 74.4408L367.838 39.3738C369.368 38.2383 371.156 37.5008 373.042 37.2275L428.368 29.2085C432.787 28.5679 437.177 30.5435 439.629 34.2756L484.241 102.189C484.353 102.358 484.412 102.557 484.412 102.76C484.413 103.09 484.178 103.703 482.973 104.126C481.781 104.545 480.473 104.414 479.72 103.941C473.946 100.317 468.047 101.266 462.141 103.256C459.962 103.991 457.656 104.913 455.294 105.858C454.481 106.183 453.661 106.511 452.838 106.835C449.569 108.12 446.116 109.395 442.363 110.393C438.864 111.324 435.175 109.547 430.95 106.95C424.946 103.259 418.502 103.553 412.894 105.321C407.321 107.079 402.342 110.353 398.892 113.027C395.942 115.313 392.239 116.704 388.459 117.043C378.735 117.916 360.757 122.23 351.926 141.48C350.136 145.381 347.226 148.458 343.554 149.601L330.77 153.58C326.937 154.773 323.67 157.322 321.582 160.751L308.614 182.037C308.07 182.93 307.04 183.404 306.008 183.236C304.646 183.014 303.703 181.756 303.872 180.386L316.026 82.262Z" fill="#E45959" stroke="#A62D2D" stroke-width="5"/>
<path d="M314.765 114.978L319.531 77.4881L372.46 39.2324C396.048 36.0329 412.911 32.6085 430.622 32.043C434.766 32.0759 437.278 33.9171 442.417 43.5918C406.739 55.654 392.411 66.2317 376.547 91.6119C346.282 90.3217 332.219 102.419 310.677 139.632L314.765 114.978Z" fill="#CD5050"/>
<path d="M316.252 77.6263L348.951 146.591" stroke="#A62D2D" stroke-width="3"/>
<path d="M370.221 38.1208L394.983 117.12M431.734 29.8038L442.184 110.247" stroke="#A62D2D" stroke-width="3"/>
<path d="M187.414 86.5966C187.218 83.4581 185.744 80.5371 183.337 78.5135L138.297 40.6474C136.839 39.4213 135.098 38.5768 133.233 38.1897L78.4945 26.8326C74.1223 25.9254 69.6202 27.6313 66.9469 31.2079L18.3007 96.2927C18.1792 96.4554 18.1078 96.65 18.0953 96.8527C18.0751 97.1815 18.2721 97.8085 19.4489 98.3035C20.6138 98.7935 21.9268 98.7423 22.7075 98.316C28.6911 95.0482 34.5217 96.3527 40.2954 98.6974C42.4266 99.5629 44.6718 100.623 46.973 101.71C47.7646 102.083 48.5628 102.46 49.3652 102.834C52.5494 104.314 55.9197 105.796 59.605 107.02C63.0416 108.161 66.8313 106.611 71.2059 104.274C77.4222 100.954 83.8367 101.638 89.327 103.743C94.7832 105.835 99.5549 109.405 102.836 112.283C105.642 114.744 109.255 116.357 113.007 116.925C122.66 118.385 140.344 123.78 147.992 143.53C149.542 147.533 152.26 150.781 155.856 152.144L168.376 156.89C172.13 158.313 175.236 161.056 177.113 164.604L188.766 186.638C189.255 187.562 190.255 188.097 191.295 187.992C192.668 187.854 193.686 186.654 193.6 185.276L187.414 86.5966Z" fill="#E45959" stroke="#A62D2D" stroke-width="5"/>
<path d="M186.691 119.329L184.205 81.619L133.692 40.2261C110.341 35.6031 93.7164 31.163 76.0723 29.5253C71.9341 29.307 69.3156 30.9927 63.599 40.3381C98.4812 54.5402 112.141 65.9667 126.438 92.2617C156.726 92.8079 170.03 105.736 189.277 144.185L186.691 119.329Z" fill="#CD5050"/>
<path d="M187.47 81.9557L150.652 148.812" stroke="#A62D2D" stroke-width="3"/>
<path d="M135.994 39.2523L106.49 116.606M75.0985 27.2228L59.792 106.884" stroke="#A62D2D" stroke-width="3"/>
<rect x="210" y="256" width="79" height="35" fill="#292929"/>
<path d="M299.345 228.698C299.301 229.933 299.247 231.372 299.182 232.976C298.961 238.461 298.617 245.857 298.125 253.506C297.633 261.163 296.994 269.041 296.187 275.502C295.784 278.735 295.342 281.575 294.865 283.838C294.369 286.187 293.886 287.644 293.506 288.307C289.19 295.833 274.151 309.5 248.916 309.5C236.261 309.5 228.38 306.628 222.697 302.914C218.393 300.101 215.343 296.844 212.27 293.564C211.162 292.381 210.052 291.194 208.878 290.025C208.278 289.427 207.518 288.071 206.753 285.727C206.015 283.468 205.365 280.596 204.8 277.285C203.672 270.67 202.924 262.557 202.432 254.634C201.941 246.725 201.708 239.065 201.598 233.379C201.563 231.572 201.54 229.965 201.526 228.614L212.409 235.663C212.413 235.746 212.417 235.831 212.421 235.92C212.469 236.905 212.539 238.317 212.629 240.026C212.808 243.445 213.069 248.06 213.392 252.838C213.715 257.611 214.101 262.569 214.533 266.667C214.749 268.715 214.978 270.572 215.221 272.096C215.453 273.553 215.726 274.908 216.08 275.824C216.898 277.945 218.957 279.575 221.065 280.808C223.293 282.111 226.106 283.269 229.15 284.239C235.238 286.179 242.614 287.478 248.883 287.561C255.87 287.653 264.023 286.671 270.831 284.842C274.233 283.928 277.39 282.779 279.928 281.39C282.389 280.044 284.641 278.272 285.67 275.928C286.146 274.844 286.489 273.364 286.76 271.787C287.04 270.157 287.275 268.229 287.473 266.142C287.869 261.964 288.132 257.025 288.306 252.317C288.48 247.603 288.567 243.092 288.61 239.761C288.632 238.095 288.643 236.723 288.648 235.766C288.649 235.718 288.649 235.672 288.649 235.626L299.345 228.698Z" fill="#E4E4E4"/>
<path d="M299.345 228.698C299.301 229.933 299.247 231.372 299.182 232.976C298.961 238.461 298.617 245.857 298.125 253.506C297.633 261.163 296.994 269.041 296.187 275.502C295.784 278.735 295.342 281.575 294.865 283.838C294.369 286.187 293.886 287.644 293.506 288.307C289.19 295.833 274.151 309.5 248.916 309.5C236.261 309.5 228.38 306.628 222.697 302.914C218.393 300.101 215.343 296.844 212.27 293.564C211.162 292.381 210.052 291.194 208.878 290.025C208.278 289.427 207.518 288.071 206.753 285.727C206.015 283.468 205.365 280.596 204.8 277.285C203.672 270.67 202.924 262.557 202.432 254.634C201.941 246.725 201.708 239.065 201.598 233.379C201.563 231.572 201.54 229.965 201.526 228.614L212.409 235.663C212.413 235.746 212.417 235.831 212.421 235.92C212.469 236.905 212.539 238.317 212.629 240.026C212.808 243.445 213.069 248.06 213.392 252.838C213.715 257.611 214.101 262.569 214.533 266.667C214.749 268.715 214.978 270.572 215.221 272.096C215.453 273.553 215.726 274.908 216.08 275.824C216.898 277.945 218.957 279.575 221.065 280.808C223.293 282.111 226.106 283.269 229.15 284.239C235.238 286.179 242.614 287.478 248.883 287.561C255.87 287.653 264.023 286.671 270.831 284.842C274.233 283.928 277.39 282.779 279.928 281.39C282.389 280.044 284.641 278.272 285.67 275.928C286.146 274.844 286.489 273.364 286.76 271.787C287.04 270.157 287.275 268.229 287.473 266.142C287.869 261.964 288.132 257.025 288.306 252.317C288.48 247.603 288.567 243.092 288.61 239.761C288.632 238.095 288.643 236.723 288.648 235.766C288.649 235.718 288.649 235.672 288.649 235.626L299.345 228.698Z" fill="url(#paint0_linear)"/>
<path d="M299.345 228.698C299.301 229.933 299.247 231.372 299.182 232.976C298.961 238.461 298.617 245.857 298.125 253.506C297.633 261.163 296.994 269.041 296.187 275.502C295.784 278.735 295.342 281.575 294.865 283.838C294.369 286.187 293.886 287.644 293.506 288.307C289.19 295.833 274.151 309.5 248.916 309.5C236.261 309.5 228.38 306.628 222.697 302.914C218.393 300.101 215.343 296.844 212.27 293.564C211.162 292.381 210.052 291.194 208.878 290.025C208.278 289.427 207.518 288.071 206.753 285.727C206.015 283.468 205.365 280.596 204.8 277.285C203.672 270.67 202.924 262.557 202.432 254.634C201.941 246.725 201.708 239.065 201.598 233.379C201.563 231.572 201.54 229.965 201.526 228.614L212.409 235.663C212.413 235.746 212.417 235.831 212.421 235.92C212.469 236.905 212.539 238.317 212.629 240.026C212.808 243.445 213.069 248.06 213.392 252.838C213.715 257.611 214.101 262.569 214.533 266.667C214.749 268.715 214.978 270.572 215.221 272.096C215.453 273.553 215.726 274.908 216.08 275.824C216.898 277.945 218.957 279.575 221.065 280.808C223.293 282.111 226.106 283.269 229.15 284.239C235.238 286.179 242.614 287.478 248.883 287.561C255.87 287.653 264.023 286.671 270.831 284.842C274.233 283.928 277.39 282.779 279.928 281.39C282.389 280.044 284.641 278.272 285.67 275.928C286.146 274.844 286.489 273.364 286.76 271.787C287.04 270.157 287.275 268.229 287.473 266.142C287.869 261.964 288.132 257.025 288.306 252.317C288.48 247.603 288.567 243.092 288.61 239.761C288.632 238.095 288.643 236.723 288.648 235.766C288.649 235.718 288.649 235.672 288.649 235.626L299.345 228.698Z" stroke="#9D9B9B" stroke-width="5"/>
<path d="M290.014 238.467L290.013 238.467C288.195 239.157 287.108 240.886 286.426 242.356C285.685 243.953 285.11 245.944 284.65 248.066C283.725 252.33 283.168 257.588 282.827 262.387C282.348 269.147 276.897 274.5 270.344 274.5H251.402H250.598H231.656C225.103 274.5 219.652 269.147 219.173 262.387C218.832 257.588 218.275 252.33 217.35 248.066C216.89 245.944 216.315 243.953 215.574 242.356C214.892 240.886 213.805 239.157 211.987 238.467L211.986 238.467L211.957 238.456C211.957 238.456 211.957 238.455 211.957 238.455C208.9 237.295 201.405 234.437 194.86 228.537C188.392 222.706 182.854 213.919 183.561 200.655C183.792 196.321 183.937 192.441 184.07 188.892C184.379 180.634 184.621 174.163 185.723 167.907C187.26 159.177 190.489 150.94 198.22 139.325C204.609 129.727 215.275 123.19 225.628 118.853C235.936 114.534 245.633 112.521 249.728 111.801C250.849 111.603 251.947 111.605 253.065 111.806C257.106 112.534 266.606 114.552 276.728 118.868C286.89 123.202 297.395 129.732 303.78 139.325C311.511 150.94 314.74 159.177 316.277 167.907C317.379 174.163 317.621 180.634 317.93 188.892C318.063 192.441 318.208 196.32 318.439 200.655C319.146 213.919 313.608 222.706 307.14 228.537C300.595 234.437 293.1 237.295 290.043 238.455C290.043 238.455 290.043 238.456 290.043 238.456L290.014 238.467Z" fill="#F3F3F3" stroke="#AAA8A8" stroke-width="5"/>
<path d="M233.734 196.596C230.774 205.692 221.001 210.667 211.904 207.707C202.808 204.746 197.834 194.973 200.794 185.877C201.474 183.787 202.746 182.703 204.427 182.209C206.187 181.692 208.461 181.806 211.077 182.346C213.674 182.882 216.492 183.811 219.292 184.816C220.23 185.153 221.17 185.499 222.098 185.842C223.909 186.51 225.671 187.16 227.273 187.681C229.309 188.344 230.955 188.757 232.225 189.075C232.479 189.139 232.719 189.199 232.943 189.257C233.625 189.432 234.136 189.575 234.529 189.724C234.925 189.874 235.117 190.001 235.214 190.097C235.311 190.191 235.489 190.401 235.269 191.501C235.068 192.503 234.609 193.913 233.915 196.043C233.856 196.222 233.796 196.407 233.734 196.596Z" fill="#292929" stroke="#4E4D4D" stroke-width="2"/>
<path d="M266.521 197.69C269.482 206.786 279.255 211.76 288.351 208.8C297.448 205.84 302.422 196.067 299.462 186.97C298.782 184.881 297.51 183.797 295.828 183.303C294.069 182.786 291.795 182.9 289.179 183.44C286.581 183.976 283.763 184.905 280.964 185.91C280.026 186.246 279.086 186.593 278.158 186.936C276.347 187.604 274.585 188.254 272.983 188.775C270.947 189.438 269.3 189.851 268.031 190.169C267.776 190.233 267.537 190.293 267.312 190.351C266.631 190.525 266.12 190.669 265.727 190.818C265.331 190.968 265.139 191.094 265.041 191.19C264.945 191.285 264.766 191.495 264.987 192.594C265.188 193.597 265.647 195.007 266.341 197.137C266.4 197.316 266.46 197.5 266.521 197.69Z" fill="#292929" stroke="#4E4D4D" stroke-width="2"/>
<path d="M249.477 214C250.476 221.764 250.73 236.799 243.757 234.823C236.785 232.846 244.665 220.117 249.477 214Z" fill="#292929" stroke="#4E4D4D" stroke-width="2"/>
<path d="M253.465 214C252.577 221.764 252.351 236.799 258.549 234.823C264.747 232.846 257.742 220.117 253.465 214Z" fill="#292929" stroke="#4E4D4D" stroke-width="2"/>
<ellipse cx="229.567" cy="173.558" rx="10.8363" ry="4.51514" transform="rotate(32.7044 229.567 173.558)" fill="#B1AEAE"/>
<ellipse rx="10.8363" ry="4.51514" transform="matrix(-0.841469 0.540305 0.540305 0.841469 270.203 173.558)" fill="#B1AEAE"/>
<circle cx="218.5" cy="197.5" r="7.5" fill="#F95E5E" stroke="#E45959" stroke-width="2"/>
<path d="M220.5 198.812C220.5 199.684 219.669 200.5 218.5 200.5C217.331 200.5 216.5 199.684 216.5 198.812C216.5 198.302 216.754 197.169 217.192 196.151C217.408 195.647 217.655 195.208 217.91 194.903C218.177 194.585 218.379 194.5 218.5 194.5C218.621 194.5 218.823 194.585 219.09 194.903C219.345 195.208 219.592 195.647 219.808 196.151C220.246 197.169 220.5 198.302 220.5 198.812Z" fill="#F2D674" stroke="#E3CD80"/>
<circle cx="280.5" cy="198.5" r="7.5" fill="#F95E5E" stroke="#E45959" stroke-width="2"/>
<path d="M282.5 199.667C282.5 200.754 281.759 201.5 281 201.5C280.241 201.5 279.5 200.754 279.5 199.667C279.5 199.097 279.707 197.99 280.056 197.019C280.23 196.537 280.427 196.122 280.629 195.838C280.851 195.525 280.983 195.5 281 195.5C281.017 195.5 281.149 195.525 281.371 195.838C281.573 196.122 281.77 196.537 281.944 197.019C282.293 197.99 282.5 199.097 282.5 199.667Z" fill="#F2D674" stroke="#E3CD80"/>
<path d="M250.271 266.85C251.048 243.967 261.791 246.137 261.205 271.575C261.862 251.883 269.818 252.895 269.818 272.421C270.273 251.858 278 247.192 278 266.993C274.754 274.325 262.655 273.224 250.273 272.421C242.67 272.751 235.74 273.21 230.734 272.13C230.732 272.227 230.73 272.323 230.727 272.421C230.727 272.323 230.727 272.226 230.727 272.129C226.633 271.244 223.828 269.329 223 265.47C223.452 245.009 230.656 252.544 230.727 272.129C230.729 272.129 230.732 272.13 230.734 272.13C231.236 252.755 238.667 252.679 239.318 269.933C239.204 245.474 249.475 245 250.271 266.85Z" fill="white"/>
<path d="M250.273 272.421C249.364 243.48 262.091 244.242 261.182 272.421C261.636 251.858 269.818 252.619 269.818 272.421C270.273 251.858 278 247.192 278 266.993C274.754 274.325 262.655 273.224 250.273 272.421ZM250.273 272.421C251.182 244.242 238.455 243.48 239.364 272.421C239.364 252.619 231.182 251.858 230.727 272.421C230.727 252.619 223.454 244.907 223 265.47C224.841 274.047 236.445 273.022 250.273 272.421Z" stroke="#C4C4C4"/>
<path d="M250.047 294.155C250.839 310.141 261.954 308.114 261.38 290.321C262.024 304.008 269.5 301.489 269.5 287.864C269.952 302.214 279 297.969 279 284.15C268.007 288.689 259.209 290.778 250.049 290.381C250.048 290.374 250.048 290.368 250.048 290.361C250.047 290.368 250.047 290.374 250.047 290.381C246.488 290.226 242.875 289.696 239.057 288.789C239.057 288.776 239.057 288.763 239.057 288.75C239.057 288.763 239.056 288.776 239.056 288.789C236.356 288.147 233.553 287.316 230.596 286.296C230.596 286.291 230.595 286.286 230.595 286.281C230.595 286.286 230.595 286.291 230.595 286.296C227.875 285.358 225.024 284.259 222 283C222.452 297.345 230.589 300.098 230.595 286.296C230.595 286.296 230.596 286.296 230.596 286.296C231.033 300.004 238.369 302.37 239.012 290.478C238.9 307.669 249.268 309.292 250.047 294.155Z" fill="white" stroke="#C4C4C4"/>
<defs>
<linearGradient id="paint0_linear" x1="250.5" y1="224" x2="250.5" y2="312" gradientUnits="userSpaceOnUse">
<stop stop-color="#AAA8A8"/>
<stop offset="1" stop-color="white" stop-opacity="0"/>
</linearGradient>
</defs>
</svg>
