<svg width="56" height="77" viewBox="0 0 56 77" fill="none" xmlns="http://www.w3.org/2000/svg">
<path d="M47 43.5C47 46.7174 46.4956 49.9033 45.5157 52.8757C44.5357 55.8482 43.0993 58.5491 41.2886 60.8241C39.4778 63.0992 37.3282 64.9038 34.9623 66.135C32.5965 67.3663 30.0608 68 27.5 68C24.9392 68 22.4035 67.3663 20.0377 66.135C17.6718 64.9038 15.5222 63.0992 13.7114 60.8241C11.9007 58.5491 10.4643 55.8482 9.48435 52.8757C8.50438 49.9033 8 46.7174 8 43.5L27.5 43.5H47Z" fill="#F07272"/>
<ellipse cx="27.5" cy="43.5" rx="18.5" ry="4.5" fill="#FF8989"/>
<path d="M34.4489 27.2261C39.1761 28.764 43.17 32.0052 45.7204 36.3733C48.2708 40.7415 49.2123 45.9533 48.3774 51.0819C47.5426 56.2105 44.9855 60.9234 41.1609 64.3824C37.3364 67.8414 32.4924 69.8222 27.4904 69.9726C22.4884 70.1229 17.6527 68.433 13.8434 65.2035C10.0341 61.974 7.49809 57.4142 6.68644 52.335C5.87478 47.2559 6.84009 41.9868 9.4107 37.4647C11.9813 32.9427 15.9905 29.4609 20.7253 27.6386L21.7462 30.7053C17.7207 32.2546 14.3121 35.2148 12.1265 39.0594C9.94102 42.9041 9.12031 47.3839 9.81038 51.7022C10.5004 56.0204 12.6566 59.8972 15.8952 62.6429C19.1339 65.3886 23.2452 66.8253 27.4979 66.6975C31.7505 66.5697 35.8689 64.8856 39.1205 61.9448C42.3721 59.004 44.5461 54.9971 45.2559 50.6368C45.9657 46.2764 45.1653 41.8453 42.9969 38.1316C40.8286 34.4178 37.433 31.6621 33.4139 30.3546L34.4489 27.2261Z" fill="#C4C4C4"/>
<path d="M24.5 15V8.50001V2.00001C26.5 0.800015 29.3333 1.50001 30.5 2.00001V8.50001V15C28.9 16.2 26 16 24.5 15Z" fill="#BE9B65" stroke="#B4966A"/>
<path d="M21 31V9.45248C23.1667 6.44888 31 5.92655 34 9.45248V31" stroke="#C4C4C4" stroke-width="3"/>
<path d="M8.99997 42C8.19997 38 16.3333 32.6667 20.5 30.5L22.4069 10C26.3325 4.40001 31.1046 7.66668 33 10V30.5C44.2 29.8417 47 45.2257 47 53C40 69 26.5 69 22.5 68C18.5 67 19 64 15.5 63.5C12 63 12 58.5 8.99997 53C5.99996 47.5 9.99997 47 8.99997 42Z" fill="#C4C4C4" fill-opacity="0.28"/>
<path d="M15 47C15 47 14.3284 54.5 13.5 54.5C12.6716 54.5 12.2424 54.0817 12 50.5C11.6743 45.6884 15.6716 39 16.5 39C17.3284 39 15 47 15 47Z" fill="white"/>
<path d="M15.5 56.8662C15.5 57.4185 17.0523 59 16.5 59C15.9477 59 13.5 57.4185 13.5 56.8662C13.5 56.3139 13.9477 55.8662 14.5 55.8662C15.0523 55.8662 15.5 56.3139 15.5 56.8662Z" fill="white"/>
</svg>
