<svg width="188" height="394" viewBox="0 0 188 394" fill="none" xmlns="http://www.w3.org/2000/svg">
<path d="M45.7129 237.046C43.7176 235.679 41.3255 233.968 38.8818 232.051C35.8065 229.64 32.6993 226.943 30.205 224.234C27.6608 221.47 25.9781 218.931 25.413 216.846C12.6818 169.873 10.7964 152.787 6.07638 110.013C5.44139 104.258 4.7551 98.0388 3.98419 91.2192C2.33101 76.5949 2.7327 59.2867 6.75312 43.991C10.7821 28.6626 18.333 15.7375 30.6692 9.2097C36.994 5.86289 42.5366 3.9373 48.119 3.31413C53.6932 2.69187 59.4688 3.35031 66.2814 5.39453C72.3466 7.21447 78.9871 12.3571 84.2851 17.3228C86.8908 19.7651 89.0937 22.089 90.6446 23.8023C90.9857 24.1791 91.2948 24.5259 91.5693 24.8374C90.9743 25.4186 90.2387 26.143 89.3857 26.9941C86.976 29.3984 83.6266 32.8168 79.8619 36.8794C72.352 44.9834 63.1111 55.7338 56.3988 66.1454C37.0781 96.1142 34.9057 140.596 37.371 177.093C38.6094 195.427 41.0321 211.913 43.1442 223.815C44.1129 229.273 45.017 233.771 45.7129 237.046Z" fill="#4E4D4D"/>
<path d="M45.7129 237.046C43.7176 235.679 41.3255 233.968 38.8818 232.051C35.8065 229.64 32.6993 226.943 30.205 224.234C27.6608 221.47 25.9781 218.931 25.413 216.846C12.6818 169.873 10.7964 152.787 6.07638 110.013C5.44139 104.258 4.7551 98.0388 3.98419 91.2192C2.33101 76.5949 2.7327 59.2867 6.75312 43.991C10.7821 28.6626 18.333 15.7375 30.6692 9.2097C36.994 5.86289 42.5366 3.9373 48.119 3.31413C53.6932 2.69187 59.4688 3.35031 66.2814 5.39453C72.3466 7.21447 78.9871 12.3571 84.2851 17.3228C86.8908 19.7651 89.0937 22.089 90.6446 23.8023C90.9857 24.1791 91.2948 24.5259 91.5693 24.8374C90.9743 25.4186 90.2387 26.143 89.3857 26.9941C86.976 29.3984 83.6266 32.8168 79.8619 36.8794C72.352 44.9834 63.1111 55.7338 56.3988 66.1454C37.0781 96.1142 34.9057 140.596 37.371 177.093C38.6094 195.427 41.0321 211.913 43.1442 223.815C44.1129 229.273 45.017 233.771 45.7129 237.046Z" fill="url(#paint0_linear)"/>
<path d="M45.7129 237.046C43.7176 235.679 41.3255 233.968 38.8818 232.051C35.8065 229.64 32.6993 226.943 30.205 224.234C27.6608 221.47 25.9781 218.931 25.413 216.846C12.6818 169.873 10.7964 152.787 6.07638 110.013C5.44139 104.258 4.7551 98.0388 3.98419 91.2192C2.33101 76.5949 2.7327 59.2867 6.75312 43.991C10.7821 28.6626 18.333 15.7375 30.6692 9.2097C36.994 5.86289 42.5366 3.9373 48.119 3.31413C53.6932 2.69187 59.4688 3.35031 66.2814 5.39453C72.3466 7.21447 78.9871 12.3571 84.2851 17.3228C86.8908 19.7651 89.0937 22.089 90.6446 23.8023C90.9857 24.1791 91.2948 24.5259 91.5693 24.8374C90.9743 25.4186 90.2387 26.143 89.3857 26.9941C86.976 29.3984 83.6266 32.8168 79.8619 36.8794C72.352 44.9834 63.1111 55.7338 56.3988 66.1454C37.0781 96.1142 34.9057 140.596 37.371 177.093C38.6094 195.427 41.0321 211.913 43.1442 223.815C44.1129 229.273 45.017 233.771 45.7129 237.046Z" stroke="#292929" stroke-width="5"/>
<path d="M128.861 346.903C131.206 349.854 139.084 351.615 141.29 334.829C125.949 335.089 126.21 343.568 128.861 346.903Z" fill="#FF8989" stroke="#F07272" stroke-width="3"/>
<path d="M80.9624 348.099C84.3184 346.382 87.599 339.007 71.5781 333.532C68.8056 348.623 77.17 350.04 80.9624 348.099Z" fill="#FF8989" stroke="#F07272" stroke-width="3"/>
<path d="M130.903 348.757C131.363 352.499 137.162 358.114 147.808 344.949C134.589 337.161 130.384 344.529 130.903 348.757Z" fill="#FF8989" stroke="#F07272" stroke-width="3"/>
<path d="M81.5429 351.078C83.9376 348.166 84.0102 340.095 67.1342 341.452C70.5999 356.399 78.8368 354.368 81.5429 351.078Z" fill="#FF8989" stroke="#F07272" stroke-width="3"/>
<path d="M78.9217 348.637C78.5042 347.051 79.6999 345.5 81.3393 345.5H97.1244C98.6647 345.5 99.8386 346.879 99.5922 348.4L96.6373 366.632C96.5118 367.406 96.5085 368.195 96.6275 368.97L99.6126 388.412C99.8505 389.961 98.6203 391.344 97.0538 391.289L92.3958 391.126C91.9933 387.913 88.2491 386.154 85.4893 388.094L82.881 389.928C82.702 390.054 82.4885 390.122 82.2697 390.122H64.1419C63.5066 390.122 62.9857 389.901 62.653 389.578C61.001 387.974 60.559 387.006 60.506 386.386C60.4616 385.866 60.6458 384.929 62.2259 383.236C62.3109 383.145 62.4305 383.044 62.5948 382.937L79.7003 371.878C82.4236 370.117 83.7068 366.806 82.8809 363.67L78.9217 348.637Z" fill="#4E4D4D" stroke="#292929" stroke-width="5"/>
<path d="M133.078 348.637C133.496 347.051 132.3 345.5 130.661 345.5H114.876C113.335 345.5 112.161 346.879 112.408 348.4L115.363 366.632C115.488 367.406 115.491 368.195 115.372 368.97L112.387 388.412C112.149 389.961 113.38 391.344 114.946 391.289L119.604 391.126C120.007 387.913 123.751 386.154 126.511 388.094L129.119 389.928C129.298 390.054 129.511 390.122 129.73 390.122H147.858C148.493 390.122 149.014 389.901 149.347 389.578C150.999 387.974 151.441 387.006 151.494 386.386C151.538 385.866 151.354 384.929 149.774 383.236C149.689 383.145 149.57 383.044 149.405 382.937L132.3 371.878C129.576 370.117 128.293 366.806 129.119 363.67L133.078 348.637Z" fill="#4E4D4D" stroke="#292929" stroke-width="5"/>
<path d="M43.7701 256.65L48.3599 243.5H66.3978L71.2048 252.641L66.5891 262.343L62.119 260.911C60.631 260.435 59.0023 260.764 57.8164 261.781L56.8094 262.645L55.0234 260.977C53.5077 259.561 51.2206 259.364 49.4856 260.501L47.2906 261.939L43.7701 256.65ZM67.0053 262.476L67.0046 262.476L67.0053 262.476Z" fill="#FF8989" stroke="#F07272" stroke-width="5"/>
<path d="M169.23 254.65L164.64 241.5H146.602L141.795 250.641L146.411 260.343L150.881 258.911C152.369 258.435 153.998 258.764 155.184 259.781L156.191 260.645L157.977 258.977C159.492 257.561 161.779 257.364 163.514 258.501L165.709 259.939L169.23 254.65ZM145.995 260.476L145.995 260.476L145.995 260.476Z" fill="#FF8989" stroke="#F07272" stroke-width="5"/>
<path d="M74.0346 236.879C74.0837 236.111 74.7275 235.5 75.5166 235.5H102.948C103.754 235.5 104.411 236.138 104.439 236.933C105.12 256.284 104.717 268.146 99.869 286.978C99.3596 288.956 99.8672 290.853 100.599 292.292C101.945 294.943 102.659 299.343 102.514 307.118C102.369 314.81 101.403 325.409 99.7174 340.173C99.6312 340.928 98.9897 341.5 98.2314 341.5H81.2925C80.464 341.5 79.7925 340.828 79.7925 340V290.11C79.7925 289.448 79.6894 288.792 79.4984 288.174C73.4317 268.543 72.7698 256.658 74.0346 236.879Z" fill="#6DACE6" stroke="#5B8FBE" stroke-width="5"/>
<path d="M138.161 236.879C138.112 236.111 137.468 235.5 136.679 235.5H109.248C108.441 235.5 107.785 236.138 107.757 236.933C107.076 256.284 107.478 268.146 112.327 286.978C112.836 288.956 112.328 290.853 111.597 292.292C110.25 294.943 109.536 299.343 109.682 307.118C109.826 314.81 110.793 325.409 112.478 340.173C112.564 340.928 113.206 341.5 113.964 341.5H130.903C131.732 341.5 132.403 340.828 132.403 340V290.11C132.403 289.448 132.506 288.792 132.697 288.174C138.764 268.543 139.426 256.658 138.161 236.879Z" fill="#6DACE6" stroke="#5B8FBE" stroke-width="5"/>
<path d="M76.5581 300.7C76.1758 299.729 76.326 298.567 77.0128 297.623L87.8236 282.749C89.292 280.729 92.3428 280.853 93.643 282.985L102.816 298.027C103.278 298.785 103.416 299.623 103.245 300.361C101.935 306.015 99.6505 310.185 92.3329 316.968C91.1264 318.087 89.267 318.094 88.0569 316.99C82.4919 311.914 79.3332 307.748 76.5581 300.7Z" fill="#E7D080" stroke="#D6B481" stroke-width="5"/>
<path d="M109.558 300.7C109.176 299.729 109.326 298.567 110.013 297.623L120.824 282.749C122.292 280.729 125.343 280.853 126.643 282.985L135.816 298.027C136.278 298.785 136.416 299.623 136.245 300.361C134.935 306.015 132.65 310.185 125.333 316.968C124.126 318.087 122.267 318.094 121.057 316.99C115.492 311.914 112.333 307.748 109.558 300.7Z" fill="#E7D080" stroke="#D6B481" stroke-width="5"/>
<path d="M103.214 137.307L103.341 137.314L103.469 137.308L153.256 134.962C157.256 134.773 159.864 137.968 159.043 141.098C157.487 147.023 154.948 152.71 152.216 158.829C151.462 160.517 150.693 162.238 149.927 164.006C146.427 172.077 143.089 180.897 142.013 191.241C140.964 201.336 142.112 212.817 143.244 224.132C143.366 225.354 143.488 226.573 143.608 227.789C144.846 240.437 145.771 252.714 143.691 263.29C143.214 265.712 140.915 267.5 138.053 267.5H72.2342C69.2686 267.5 66.9277 265.582 66.559 263.06C64.9859 252.299 66.4356 239.632 68.1576 226.879C68.3184 225.688 68.4817 224.496 68.645 223.304C70.2035 211.927 71.7549 200.603 70.9916 191.296C70.0521 179.838 66.8922 170.657 63.6276 162.583C62.869 160.707 62.1142 158.91 61.383 157.169C58.9233 151.311 56.731 146.091 55.5607 140.651C54.9308 137.723 57.4582 134.792 61.3139 135.004L103.214 137.307Z" fill="#C4C4C4" stroke="#656262" stroke-width="5"/>
<path d="M106.5 140.5L106.5 265.5" stroke="#656262" stroke-width="10"/>
<g style="mix-blend-mode:darken">
<path d="M99.5 140.5L99.5 265.5" stroke="#B1AEAE" stroke-width="10"/>
</g>
<g style="mix-blend-mode:darken">
<path d="M113.5 140.5L113.5 265.5" stroke="#B1AEAE" stroke-width="10"/>
</g>
<path d="M78.4614 124.918C78.5803 124.657 78.8939 124.55 79.148 124.683L104.065 137.71C104.287 137.826 104.389 138.088 104.304 138.324L100.463 148.907C100.421 149.022 100.347 149.102 100.273 149.147C100.204 149.188 100.143 149.197 100.083 149.186C94.2387 148.141 88.6263 145.807 84.0807 142.843C79.5022 139.858 76.2158 136.375 74.7363 133.16C74.7362 133.158 74.7362 133.156 74.7363 133.153C74.7372 133.126 74.7452 133.071 74.7786 132.998L78.4614 124.918Z" fill="#E7D080" stroke="#D6B481" stroke-width="5"/>
<path d="M133.994 124.986C133.875 124.725 133.561 124.617 133.307 124.75L108.39 137.778C108.168 137.894 108.066 138.156 108.152 138.391L111.992 148.974C112.034 149.09 112.108 149.17 112.182 149.214C112.251 149.256 112.312 149.264 112.372 149.254C118.217 148.209 123.829 145.874 128.375 142.911C132.953 139.926 136.239 136.443 137.719 133.228C137.719 133.226 137.719 133.223 137.719 133.22C137.718 133.194 137.71 133.138 137.677 133.065L133.994 124.986Z" fill="#E7D080" stroke="#D6B481" stroke-width="5"/>
<path d="M142.5 138.253C142.5 137.108 143.261 136.164 144.274 135.922C152.1 134.053 156.932 134.053 160.296 135.763C163.576 137.43 166.136 141.086 168.399 148.476C168.464 148.688 168.5 148.927 168.5 149.166V236.444C168.5 237.825 167.381 238.944 166 238.944H145C143.619 238.944 142.5 237.825 142.5 236.444V138.253Z" fill="#C4C4C4" stroke="#656262" stroke-width="5"/>
<path d="M71.5 138.253C71.5 137.108 70.7392 136.164 69.7264 135.922C61.9005 134.053 57.0681 134.053 53.7041 135.763C50.4238 137.43 47.8641 141.086 45.601 148.476C45.5358 148.688 45.5 148.927 45.5 149.166V236.444C45.5 237.825 46.6193 238.944 48 238.944H69C70.3807 238.944 71.5 237.825 71.5 236.444V138.253Z" fill="#C4C4C4" stroke="#656262" stroke-width="5"/>
<path d="M64.624 155.919C65.2095 155.647 65.6428 155.177 65.8532 154.614C67.0483 151.414 69.4314 144.714 70.7343 138.914C71.3967 135.966 71.7182 133.506 71.586 131.908C71.5546 131.529 71.5026 131.27 71.4564 131.103C71.267 131.115 71.0737 131.128 70.8769 131.141C67.0714 131.389 61.9136 131.726 57.0692 134C52.0222 136.37 47.1645 140.933 45.0675 150.422C43.2336 158.72 42.3191 163.615 41.8758 166.48L64.624 155.919ZM39.3725 167.642C39.3725 167.642 39.3743 167.641 39.3779 167.64C39.3743 167.641 39.3725 167.642 39.3725 167.642Z" fill="#AAA8A8" stroke="#656262" stroke-width="5"/>
<path d="M149.905 155.919C149.319 155.647 148.886 155.177 148.675 154.614C147.48 151.414 145.097 144.714 143.794 138.914C143.132 135.966 142.81 133.506 142.943 131.908C142.974 131.529 143.026 131.27 143.072 131.103C143.262 131.115 143.455 131.128 143.652 131.141C147.457 131.389 152.615 131.726 157.459 134C162.506 136.37 167.364 140.933 169.461 150.422C171.295 158.72 172.21 163.615 172.653 166.48L149.905 155.919ZM175.156 167.642C175.156 167.642 175.154 167.641 175.151 167.64C175.154 167.641 175.156 167.642 175.156 167.642Z" fill="#AAA8A8" stroke="#656262" stroke-width="5"/>
<path d="M74.5 114C68.5 100.5 61 44.5 61 44.5H148C148 44.5 143.5 99 138 114C132.5 129 114.5 135 107 135C99.5 135 80.4999 127.5 74.5 114Z" fill="#FCF1E2" stroke="#E6D9C7" stroke-width="5"/>
<path d="M103.438 99.8644L104.639 96.0589C105.522 93.2634 109.478 93.2634 110.361 96.0589L111.562 99.8644L113.11 106.299C113.564 108.185 112.134 110 110.193 110H104.807C102.866 110 101.436 108.185 101.89 106.299L103.438 99.8644Z" fill="#F5C9B6"/>
<path d="M96 116L107 119.5L118 116" stroke="#F07272" stroke-width="2"/>
<path d="M72.5986 89.047C72.7578 102.287 92.9496 106.354 98.4374 91.9223L72.5986 89.047Z" fill="white" stroke="black"/>
<g style="mix-blend-mode:darken">
<rect width="25.1871" height="1.9052" transform="matrix(-0.993205 -0.11638 -0.11638 0.993205 98.2377 91.9313)" fill="#C4C4C4" fill-opacity="0.47"/>
</g>
<path d="M92 94C92 97.3137 88.866 100 85 100C81.134 100 78 97.3137 78 94C78 90.6863 81.134 88.5 85 88.5C88.866 88.5 92 90.6863 92 94Z" fill="#6DACE6"/>
<rect x="72.2238" y="86.6566" width="27.2692" height="2.87405" transform="rotate(6.31467 72.2238 86.6566)" fill="black"/>
<path d="M96.5 88C93.1667 86 83.9 82.8 73.5 86" stroke="black"/>
<path d="M73 84L76 88" stroke="black"/>
<path d="M76 84L79 88" stroke="black"/>
<path d="M77 98L75 100" stroke="black"/>
<path d="M76 97L74 99" stroke="black"/>
<path d="M135 99L137 101" stroke="black"/>
<path d="M136 98L138 100" stroke="black"/>
<ellipse cx="94.044" cy="80.0814" rx="7.5" ry="3" transform="rotate(27.0372 94.044 80.0814)" fill="black"/>
<path d="M140.489 89.047C140.33 102.287 120.139 106.354 114.651 91.9223L140.489 89.047Z" fill="white" stroke="black"/>
<g style="mix-blend-mode:darken">
<rect x="114.964" y="92.3619" width="24.2018" height="1.9052" transform="rotate(-6.68324 114.964 92.3619)" fill="#C4C4C4" fill-opacity="0.47"/>
</g>
<path d="M121.088 94C121.088 97.3137 124.222 100 128.088 100C131.954 100 135.088 97.3137 135.088 94C135.088 90.6863 131.954 88.5 128.088 88.5C124.222 88.5 121.088 90.6863 121.088 94Z" fill="#6DACE6"/>
<rect width="27.2692" height="2.87405" transform="matrix(-0.993933 0.109989 0.109989 0.993933 140.864 86.6566)" fill="black"/>
<path d="M116.588 88C119.921 86 129.188 82.8 139.588 86" stroke="black"/>
<path d="M140.088 84L137.088 88" stroke="black"/>
<path d="M137.088 84L134.088 88" stroke="black"/>
<ellipse rx="7.5" ry="3" transform="matrix(-0.890712 0.454569 0.454569 0.890712 119.044 80.0814)" fill="black"/>
<path d="M169.8 232.266C152.918 207.61 152.45 113.129 154.326 68.9706L140.621 63.478C140.664 188.266 148.592 221.25 152.551 222.143L169.8 232.266Z" fill="#4E4D4D"/>
<path d="M169.8 232.266C152.918 207.61 152.45 113.129 154.326 68.9706L140.621 63.478C140.664 188.266 148.592 221.25 152.551 222.143L169.8 232.266Z" fill="url(#paint1_linear)"/>
<path d="M169.8 232.266C152.918 207.61 152.45 113.129 154.326 68.9706L140.621 63.478C140.664 188.266 148.592 221.25 152.551 222.143L169.8 232.266Z" stroke="#292929" stroke-width="5"/>
<path d="M87.4177 229.761C70.255 205.299 68.7062 110.829 70.0772 66.6526L56.3101 61.317C57.7799 186.096 66.0854 218.987 70.0544 219.835L78.736 224.798L87.4177 229.761Z" fill="#4E4D4D"/>
<path d="M87.4177 229.761C70.255 205.299 68.7062 110.829 70.0772 66.6526L56.3101 61.317C57.7799 186.096 66.0854 218.987 70.0544 219.835L78.736 224.798L87.4177 229.761Z" fill="url(#paint2_linear)"/>
<path d="M87.4177 229.761C70.255 205.299 68.7062 110.829 70.0772 66.6526L56.3101 61.317C57.7799 186.096 66.0854 218.987 70.0544 219.835L78.736 224.798L87.4177 229.761Z" stroke="#292929" stroke-width="5"/>
<path d="M90.1187 26.4396C93.7658 27.3934 101.124 24.0759 92.8181 9.32303C80.7008 18.7348 85.9973 25.3618 90.1187 26.4396Z" fill="#FF8989"/>
<path d="M84.9145 25.8607C88.3097 24.2226 91.7621 16.9262 75.8737 11.078C72.7488 26.0994 81.0777 27.7118 84.9145 25.8607Z" fill="#FF8989"/>
<path d="M80.1503 29.3314C82.2163 26.1782 81.416 18.1461 64.7856 21.3195C69.8464 35.8038 77.8156 32.8947 80.1503 29.3314Z" fill="#FF8989"/>
<path d="M90.1187 26.4396C93.7658 27.3934 101.124 24.0759 92.8181 9.32303C80.7008 18.7348 85.9973 25.3618 90.1187 26.4396Z" stroke="#F07272" stroke-width="3"/>
<path d="M84.9145 25.8607C88.3097 24.2226 91.7621 16.9262 75.8737 11.078C72.7488 26.0994 81.0777 27.7118 84.9145 25.8607Z" stroke="#F07272" stroke-width="3"/>
<path d="M80.1503 29.3314C82.2163 26.1782 81.416 18.1461 64.7856 21.3195C69.8464 35.8038 77.8156 32.8947 80.1503 29.3314Z" stroke="#F07272" stroke-width="3"/>
<path d="M54.4131 81.9933C73.3832 82.412 98.1497 62.98 105 53.2117C103.946 46.9321 99.7305 32.6983 91.2994 26C84.2874 26 45.1388 33.0122 54.4131 81.9933Z" fill="#4E4D4D" stroke="#292929" stroke-width="5"/>
<path d="M154.306 81.9933C135.662 82.4133 111.321 62.9198 104.588 53.1205C104.018 48.1531 100.701 35.8035 92 26.1442C117.483 21.9051 165.62 27.1403 154.306 81.9933Z" fill="#4E4D4D" stroke="#292929" stroke-width="5"/>
<path d="M106.288 64.6619L105.531 64.3371L104.764 64.6402C94.0775 68.8665 85.8809 71.1793 77.8007 72.2086C70.0926 73.1906 62.4032 73.0163 52.641 72.1425C51.7348 67.6713 51.8622 64.6799 52.6402 60.1614C73.0316 61.9526 85.1185 59.3216 105.465 52.1339C115.655 56.1046 123.791 58.6932 131.971 59.9794C139.862 61.2203 147.708 61.2364 157.397 60.1939C157.822 62.4336 158.072 64.2498 158.107 66.0384C158.143 67.9157 157.941 69.8195 157.394 72.1786C148.041 73.2786 140.656 73.6359 133.127 72.6968C125.242 71.7132 117.087 69.2928 106.288 64.6619Z" fill="#E7D080" stroke="#D6B481" stroke-width="4"/>
<path d="M105 52V65.5" stroke="#D6B481" stroke-width="2"/>
<path d="M90 279V299" stroke="#D6B481" stroke-width="2"/>
<path d="M90 303V318" stroke="#D6B481" stroke-width="2"/>
<path d="M123 303V318" stroke="#D6B481" stroke-width="2"/>
<path d="M123 279V299" stroke="#D6B481" stroke-width="2"/>
<defs>
<linearGradient id="paint0_linear" x1="47.7852" y1="0.588837" x2="47.7852" y2="242.5" gradientUnits="userSpaceOnUse">
<stop offset="0.53125" stop-color="white" stop-opacity="0"/>
<stop offset="1" stop-color="#EFF0C8"/>
</linearGradient>
<linearGradient id="paint1_linear" x1="142.257" y1="63.2927" x2="161.5" y2="233.206" gradientUnits="userSpaceOnUse">
<stop offset="0.432292" stop-color="white" stop-opacity="0"/>
<stop offset="1" stop-color="#EFF0C8"/>
</linearGradient>
<linearGradient id="paint2_linear" x1="57.9447" y1="61.113" x2="79.1293" y2="230.796" gradientUnits="userSpaceOnUse">
<stop offset="0.432292" stop-color="white" stop-opacity="0"/>
<stop offset="1" stop-color="#EFF0C8"/>
</linearGradient>
</defs>
</svg>
