<svg width="220" height="204" viewBox="0 0 220 204" fill="none" xmlns="http://www.w3.org/2000/svg">
<rect x="2.5" y="102.5" width="215" height="99" rx="15.5" fill="#E7D080" stroke="#B4966A" stroke-width="5"/>
<path d="M2.5 45.7503C2.5 40.002 5.68545 34.7218 10.7735 32.1522C49.9874 12.3475 81.0167 2.96111 111.426 3.14371C141.837 3.32633 171.928 13.08 209.271 32.1299C214.333 34.7126 217.5 39.9804 217.5 45.7096V82.0003C217.5 90.5607 210.56 97.5003 202 97.5003H18C9.43958 97.5003 2.5 90.5607 2.5 82.0003V45.7503Z" fill="#E7D080" stroke="#B4966A" stroke-width="5"/>
<path d="M41 20.5C54.4141 14.9418 61.0887 12.7468 71 11L65.5 56L72.5 95H42L35 56L41 20.5Z" fill="#B4966A"/>
<path d="M43.5 105L74 105V160V199H43.5V160V105Z" fill="#B4966A"/>
<path d="M148 105L178.5 105V160V199H148V160V105Z" fill="#B4966A"/>
<path d="M179.5 20.5C166.086 14.9418 159.411 12.7468 149.5 11L155 56L148 95H178.5L185.5 56L179.5 20.5Z" fill="#B4966A"/>
<path d="M134.5 110.5C134.5 114.334 133.875 117.163 132.802 119.263C131.737 121.346 130.203 122.771 128.265 123.762C124.3 125.79 118.684 126 112 126C105.326 126 99.3106 125.794 94.9546 123.747C92.8155 122.743 91.1016 121.302 89.9101 119.222C88.7118 117.129 88 114.315 88 110.5C88 102.834 90.8747 92.8766 95.4008 84.8381C97.6602 80.8254 100.304 77.3405 103.156 74.8707C106.012 72.3983 109.008 71 112 71C114.986 71 117.883 72.3929 120.591 74.8547C123.3 77.317 125.758 80.795 127.832 84.8068C131.986 92.8391 134.5 102.808 134.5 110.5Z" fill="#D6B481" stroke="#B4966A" stroke-width="2"/>
<mask id="path-8-inside-1" fill="white">
<path d="M123 101C123 106.523 118.075 111 112 111C105.925 111 101 106.523 101 101C101 95.4772 105.925 91 112 91C118.075 91 123 95.4772 123 101ZM103.786 101C103.786 105.124 107.464 108.467 112 108.467C116.536 108.467 120.214 105.124 120.214 101C120.214 96.876 116.536 93.5328 112 93.5328C107.464 93.5328 103.786 96.876 103.786 101Z"/>
</mask>
<path d="M123 101C123 106.523 118.075 111 112 111C105.925 111 101 106.523 101 101C101 95.4772 105.925 91 112 91C118.075 91 123 95.4772 123 101ZM103.786 101C103.786 105.124 107.464 108.467 112 108.467C116.536 108.467 120.214 105.124 120.214 101C120.214 96.876 116.536 93.5328 112 93.5328C107.464 93.5328 103.786 96.876 103.786 101Z" fill="#B4966A" stroke="#AD8E60" stroke-width="2" mask="url(#path-8-inside-1)"/>
<circle cx="112" cy="92" r="4" fill="#B4966A"/>
<path d="M75.5 10L70 56.5L77 95" stroke="#B4966A"/>
<path d="M145.5 10L151 56.5L144 95" stroke="#B4966A"/>
<path d="M36.5 23L31 56.5L38 95" stroke="#B4966A"/>
<path d="M184.5 23L190 56.5L183 95" stroke="#B4966A"/>
<path d="M38 105V198.5" stroke="#B4966A"/>
<path d="M79 105V198.5" stroke="#B4966A"/>
<path d="M144 105V198.5" stroke="#B4966A"/>
<path d="M183 105V198.5" stroke="#B4966A"/>
</svg>
