<svg width="333" height="558" viewBox="0 0 333 558" fill="none" xmlns="http://www.w3.org/2000/svg">
<rect x="5.35602" y="5" width="322.232" height="547.899" rx="15" fill="white" stroke="#C4C4C4" stroke-width="10"/>
<path d="M112.239 20.9531V26.8505H116.704V25.2685H118.435V26.8505C118.435 27.0908 118.389 27.3163 118.295 27.5273C118.207 27.7382 118.084 27.9228 117.926 28.081C117.773 28.2333 117.592 28.3564 117.381 28.4501C117.17 28.538 116.944 28.582 116.704 28.582H112.239C112.005 28.582 111.782 28.538 111.571 28.4501C111.36 28.3564 111.176 28.2333 111.017 28.081C110.865 27.9228 110.742 27.7382 110.648 27.5273C110.56 27.3163 110.517 27.0908 110.517 26.8505V20.9531C110.517 20.7128 110.56 20.4872 110.648 20.2763C110.742 20.0654 110.865 19.8837 111.017 19.7314C111.176 19.5732 111.36 19.4501 111.571 19.3622C111.782 19.2685 112.005 19.2216 112.239 19.2216H116.704C116.944 19.2216 117.17 19.2685 117.381 19.3622C117.592 19.4501 117.773 19.5732 117.926 19.7314C118.084 19.8837 118.207 20.0654 118.295 20.2763C118.389 20.4872 118.435 20.7128 118.435 20.9531V22.5351H116.704V20.9531H112.239ZM129.422 26.8505C129.422 27.0908 129.375 27.3163 129.281 27.5273C129.193 27.7382 129.07 27.9228 128.912 28.081C128.76 28.2333 128.578 28.3564 128.367 28.4501C128.162 28.538 127.939 28.582 127.699 28.582H123.05C122.815 28.582 122.593 28.538 122.382 28.4501C122.171 28.3564 121.986 28.2333 121.828 28.081C121.676 27.9228 121.553 27.7382 121.459 27.5273C121.371 27.3163 121.327 27.0908 121.327 26.8505V20.9531C121.327 20.7128 121.371 20.4872 121.459 20.2763C121.553 20.0654 121.676 19.8837 121.828 19.7314C121.986 19.5732 122.171 19.4501 122.382 19.3622C122.593 19.2685 122.815 19.2216 123.05 19.2216H127.699C127.939 19.2216 128.162 19.2685 128.367 19.3622C128.578 19.4501 128.76 19.5732 128.912 19.7314C129.07 19.8837 129.193 20.0654 129.281 20.2763C129.375 20.4872 129.422 20.7128 129.422 20.9531V26.8505ZM123.05 20.9531V26.8505H127.699V20.9531H123.05ZM132.313 20.9531C132.313 20.7128 132.357 20.4872 132.445 20.2763C132.539 20.0654 132.662 19.8837 132.814 19.7314C132.973 19.5732 133.157 19.4501 133.368 19.3622C133.579 19.2685 133.802 19.2216 134.036 19.2216H138.861V15.6181H140.593V28.582H138.861V26.9999C138.844 27.2167 138.785 27.4218 138.685 27.6152C138.586 27.8085 138.457 27.9785 138.299 28.1249C138.146 28.2656 137.971 28.3769 137.771 28.4589C137.572 28.541 137.361 28.582 137.139 28.582H134.036C133.802 28.582 133.579 28.538 133.368 28.4501C133.157 28.3564 132.973 28.2333 132.814 28.081C132.662 27.9228 132.539 27.7382 132.445 27.5273C132.357 27.3163 132.313 27.0908 132.313 26.8505V20.9531ZM134.036 26.8505H138.861V20.9531H134.036V26.8505ZM151.394 24.7851H145.198V26.8505H151.394V28.582H145.198C144.964 28.582 144.741 28.538 144.53 28.4501C144.319 28.3564 144.135 28.2333 143.976 28.081C143.824 27.9228 143.701 27.7382 143.607 27.5273C143.519 27.3163 143.475 27.0908 143.475 26.8505V20.9531C143.475 20.7128 143.519 20.4872 143.607 20.2763C143.701 20.0654 143.824 19.8837 143.976 19.7314C144.135 19.5732 144.319 19.4501 144.53 19.3622C144.741 19.2685 144.964 19.2216 145.198 19.2216H149.663C149.903 19.2216 150.129 19.2685 150.34 19.3622C150.551 19.4501 150.732 19.5732 150.885 19.7314C151.043 19.8837 151.166 20.0654 151.254 20.2763C151.348 20.4872 151.394 20.7128 151.394 20.9531V24.7851ZM145.198 20.9531V23.0536H149.663V20.9531H145.198ZM154.462 15.9785H163.646V17.7802H156.264V21.3837H162.565V23.1855H156.264V26.7802H163.646V28.582H154.462V15.9785ZM166.169 20.9531C166.169 20.7128 166.213 20.4872 166.301 20.2763C166.394 20.0654 166.517 19.8837 166.67 19.7314C166.828 19.5732 167.013 19.4501 167.224 19.3622C167.434 19.2685 167.657 19.2216 167.892 19.2216H172.717V15.6181H174.448V28.582H172.717V26.9999C172.699 27.2167 172.641 27.4218 172.541 27.6152C172.441 27.8085 172.312 27.9785 172.154 28.1249C172.002 28.2656 171.826 28.3769 171.627 28.4589C171.428 28.541 171.217 28.582 170.994 28.582H167.892C167.657 28.582 167.434 28.538 167.224 28.4501C167.013 28.3564 166.828 28.2333 166.67 28.081C166.517 27.9228 166.394 27.7382 166.301 27.5273C166.213 27.3163 166.169 27.0908 166.169 26.8505V20.9531ZM167.892 26.8505H172.717V20.9531H167.892V26.8505ZM179.15 19.2216V28.582H177.419V19.2216H179.15ZM177.331 15.6181H179.238V17.4199H177.331V15.6181ZM181.585 19.2216H183.87V16.3388H185.601V19.2216H188.678V20.9531H185.601V26.8505H188.678V28.582H185.601C185.367 28.582 185.144 28.538 184.933 28.4501C184.723 28.3564 184.538 28.2333 184.38 28.081C184.222 27.9228 184.096 27.7382 184.002 27.5273C183.914 27.3163 183.87 27.0908 183.87 26.8505V20.9531H181.585V19.2216ZM199.664 26.8505C199.664 27.0908 199.617 27.3163 199.523 27.5273C199.435 27.7382 199.312 27.9228 199.154 28.081C199.002 28.2333 198.82 28.3564 198.609 28.4501C198.404 28.538 198.182 28.582 197.941 28.582H193.292C193.058 28.582 192.835 28.538 192.624 28.4501C192.413 28.3564 192.228 28.2333 192.07 28.081C191.918 27.9228 191.795 27.7382 191.701 27.5273C191.613 27.3163 191.569 27.0908 191.569 26.8505V20.9531C191.569 20.7128 191.613 20.4872 191.701 20.2763C191.795 20.0654 191.918 19.8837 192.07 19.7314C192.228 19.5732 192.413 19.4501 192.624 19.3622C192.835 19.2685 193.058 19.2216 193.292 19.2216H197.941C198.182 19.2216 198.404 19.2685 198.609 19.3622C198.82 19.4501 199.002 19.5732 199.154 19.7314C199.312 19.8837 199.435 20.0654 199.523 20.2763C199.617 20.4872 199.664 20.7128 199.664 20.9531V26.8505ZM193.292 20.9531V26.8505H197.941V20.9531H193.292ZM204.278 20.9531V28.582H202.556V19.2216H204.278V20.874C204.29 20.6454 204.343 20.4316 204.436 20.2324C204.53 20.0273 204.653 19.8515 204.806 19.705C204.964 19.5527 205.145 19.4355 205.35 19.3535C205.556 19.2656 205.775 19.2216 206.01 19.2216H207.847C208.087 19.2216 208.309 19.2685 208.515 19.3622C208.725 19.4501 208.91 19.5732 209.068 19.7314C209.226 19.8837 209.35 20.0654 209.437 20.2763C209.531 20.4872 209.578 20.7128 209.578 20.9531V22.5351H207.847V20.9531H204.278ZM213.006 31.2626H211.731L213.023 28.582H211.731V25.954H214.359V28.582L213.006 31.2626ZM211.731 19.2216H214.359V21.8495H211.731V19.2216Z" fill="black"/>
</svg>
