<svg width="279" height="19" viewBox="0 0 279 19" fill="none" xmlns="http://www.w3.org/2000/svg">
<rect x="0.72113" y="1.05048" width="277.502" height="16.0146" rx="2.5" fill="white" stroke="#C4C4C4"/>
<path d="M17.4873 13.5799H16.1406V7.6463H12.3877V13.5799H11.0478V6.29962H12.3877V7.58478C12.3968 7.40704 12.4378 7.2407 12.5107 7.08575C12.5836 6.92625 12.6793 6.78953 12.7978 6.6756C12.9209 6.55711 13.0621 6.46596 13.2216 6.40216C13.3812 6.3338 13.552 6.29962 13.7343 6.29962H16.1406C16.3274 6.29962 16.5029 6.33608 16.667 6.409C16.831 6.47736 16.9723 6.57306 17.0908 6.69611C17.2138 6.8146 17.3095 6.95587 17.3779 7.11993C17.4508 7.284 17.4873 7.45945 17.4873 7.6463V13.5799ZM25.8886 10.6268H21.0693V12.2332H25.8886V13.5799H21.0693C20.887 13.5799 20.7138 13.5457 20.5498 13.4774C20.3857 13.4044 20.2422 13.3087 20.1191 13.1902C20.0006 13.0672 19.9049 12.9236 19.832 12.7596C19.7636 12.5955 19.7295 12.4201 19.7295 12.2332V7.6463C19.7295 7.45945 19.7636 7.284 19.832 7.11993C19.9049 6.95587 20.0006 6.8146 20.1191 6.69611C20.2422 6.57306 20.3857 6.47736 20.5498 6.409C20.7138 6.33608 20.887 6.29962 21.0693 6.29962H24.542C24.7288 6.29962 24.9043 6.33608 25.0683 6.409C25.2324 6.47736 25.3737 6.57306 25.4922 6.69611C25.6152 6.8146 25.7109 6.95587 25.7793 7.11993C25.8522 7.284 25.8886 7.45945 25.8886 7.6463V10.6268ZM21.0693 7.6463V9.28009H24.542V7.6463H21.0693ZM34.4814 6.29962L31.8359 9.85431L34.6045 13.5799H32.9775L31.0224 10.9481L29.0605 13.5799H27.4336L30.209 9.85431L27.5634 6.29962H29.1836L31.0224 8.76056L32.8545 6.29962H34.4814ZM35.7256 6.29962H37.5029V4.05743H38.8496V6.29962H41.2422V7.6463H38.8496V12.2332H41.2422V13.5799H38.8496C38.6673 13.5799 38.4941 13.5457 38.33 13.4774C38.166 13.4044 38.0224 13.3087 37.8994 13.1902C37.7763 13.0672 37.6784 12.9236 37.6054 12.7596C37.5371 12.5955 37.5029 12.4201 37.5029 12.2332V7.6463H35.7256V6.29962ZM42.7871 3.77716H50.6279V5.17853H47.4082V13.5799H46.0068V5.17853H42.7871V3.77716ZM57.6211 12.2332C57.6211 12.4201 57.5846 12.5955 57.5117 12.7596C57.4433 12.9236 57.3476 13.0672 57.2246 13.1902C57.1061 13.3087 56.9648 13.4044 56.8007 13.4774C56.6412 13.5457 56.4681 13.5799 56.2812 13.5799H52.665C52.4827 13.5799 52.3095 13.5457 52.1455 13.4774C51.9814 13.4044 51.8379 13.3087 51.7148 13.1902C51.5963 13.0672 51.5006 12.9236 51.4277 12.7596C51.3593 12.5955 51.3252 12.4201 51.3252 12.2332V7.6463C51.3252 7.45945 51.3593 7.284 51.4277 7.11993C51.5006 6.95587 51.5963 6.8146 51.7148 6.69611C51.8379 6.57306 51.9814 6.47736 52.1455 6.409C52.3095 6.33608 52.4827 6.29962 52.665 6.29962H56.2812C56.4681 6.29962 56.6412 6.33608 56.8007 6.409C56.9648 6.47736 57.1061 6.57306 57.2246 6.69611C57.3476 6.8146 57.4433 6.95587 57.5117 7.11993C57.5846 7.284 57.6211 7.45945 57.6211 7.6463V12.2332ZM52.665 7.6463V12.2332H56.2812V7.6463H52.665ZM63.3564 15.1932V16.5193H63.1582C62.6386 16.5193 62.167 16.4373 61.7431 16.2733C61.3193 16.1137 60.957 15.8836 60.6562 15.5828C60.36 15.2866 60.1298 14.9266 59.9658 14.5027C59.8063 14.0789 59.7265 13.6072 59.7265 13.0877V6.51154C59.7265 5.992 59.8063 5.52032 59.9658 5.0965C60.1298 4.67267 60.36 4.31264 60.6562 4.01642C60.957 3.71564 61.3193 3.48549 61.7431 3.32599C62.167 3.16193 62.6386 3.0799 63.1582 3.0799H63.3564V4.4129H63.1582C62.8392 4.4129 62.5543 4.45848 62.3037 4.54962C62.053 4.64077 61.8411 4.77521 61.6679 4.95294C61.4948 5.12612 61.3603 5.33803 61.2646 5.58868C61.1735 5.83934 61.1279 6.12417 61.1279 6.44318V13.1629C61.1279 13.81 61.3034 14.3091 61.6543 14.66C62.0097 15.0154 62.511 15.1932 63.1582 15.1932H63.3564ZM71.6689 6.29962L69.0234 9.85431L71.792 13.5799H70.165L68.2099 10.9481L66.248 13.5799H64.6211L67.3965 9.85431L64.7509 6.29962H66.3711L68.2099 8.76056L70.042 6.29962H71.6689ZM73.2549 15.1932C73.902 15.1932 74.401 15.0154 74.7519 14.66C75.1074 14.3091 75.2851 13.81 75.2851 13.1629V6.44318C75.2851 6.12417 75.2396 5.83934 75.1484 5.58868C75.0573 5.33803 74.9228 5.12612 74.7451 4.95294C74.5719 4.77521 74.36 4.64077 74.1093 4.54962C73.8587 4.45848 73.5739 4.4129 73.2549 4.4129H73.0566V3.0799H73.2549C73.7744 3.0799 74.2461 3.16193 74.6699 3.32599C75.0937 3.48549 75.4537 3.71564 75.75 4.01642C76.0462 4.31264 76.2741 4.67267 76.4336 5.0965C76.5976 5.52032 76.6797 5.992 76.6797 6.51154V13.0877C76.6797 13.6072 76.5976 14.0789 76.4336 14.5027C76.2741 14.9266 76.0462 15.2866 75.75 15.5828C75.4537 15.8836 75.0937 16.1137 74.6699 16.2733C74.2461 16.4373 73.7744 16.5193 73.2549 16.5193H73.0566V15.1932H73.2549Z" fill="#AAA8A8"/>
<path d="M269.32 12.192L273.586 6.14736H265.055L269.32 12.192Z" fill="#C4C4C4"/>
</svg>
