<svg width="279" height="20" viewBox="0 0 279 20" fill="none" xmlns="http://www.w3.org/2000/svg">
<rect x="0.5" y="1.32025" width="277.502" height="16.0146" rx="2.5" fill="white" stroke="#F2D674"/>
<path d="M17.2661 13.8497H15.9194V7.91608H12.1665V13.8497H10.8267V6.5694H12.1665V7.85455C12.1756 7.67682 12.2166 7.51048 12.2896 7.35553C12.3625 7.19602 12.4582 7.05931 12.5767 6.94537C12.6997 6.82688 12.841 6.73574 13.0005 6.67194C13.16 6.60358 13.3309 6.5694 13.5132 6.5694H15.9194C16.1063 6.5694 16.2817 6.60586 16.4458 6.67877C16.6099 6.74713 16.7512 6.84283 16.8696 6.96588C16.9927 7.08437 17.0884 7.22565 17.1567 7.38971C17.2297 7.55377 17.2661 7.72923 17.2661 7.91608V13.8497ZM25.6675 10.8965H20.8482V12.503H25.6675V13.8497H20.8482C20.6659 13.8497 20.4927 13.8155 20.3286 13.7471C20.1646 13.6742 20.021 13.5785 19.898 13.46C19.7795 13.337 19.6838 13.1934 19.6109 13.0294C19.5425 12.8653 19.5083 12.6898 19.5083 12.503V7.91608C19.5083 7.72923 19.5425 7.55377 19.6109 7.38971C19.6838 7.22565 19.7795 7.08437 19.898 6.96588C20.021 6.84283 20.1646 6.74713 20.3286 6.67877C20.4927 6.60586 20.6659 6.5694 20.8482 6.5694H24.3208C24.5077 6.5694 24.6831 6.60586 24.8472 6.67877C25.0112 6.74713 25.1525 6.84283 25.271 6.96588C25.3941 7.08437 25.4898 7.22565 25.5581 7.38971C25.631 7.55377 25.6675 7.72923 25.6675 7.91608V10.8965ZM20.8482 7.91608V9.54987H24.3208V7.91608H20.8482ZM34.2603 6.5694L31.6148 10.1241L34.3833 13.8497H32.7564L30.8013 11.2178L28.8394 13.8497H27.2124L29.9878 10.1241L27.3423 6.5694H28.9624L30.8013 9.03033L32.6333 6.5694H34.2603ZM35.5044 6.5694H37.2817V4.32721H38.6284V6.5694H41.021V7.91608H38.6284V12.503H41.021V13.8497H38.6284C38.4461 13.8497 38.273 13.8155 38.1089 13.7471C37.9448 13.6742 37.8013 13.5785 37.6782 13.46C37.5552 13.337 37.4572 13.1934 37.3843 13.0294C37.3159 12.8653 37.2817 12.6898 37.2817 12.503V7.91608H35.5044V6.5694ZM42.5659 4.04694H50.4067V5.4483H47.187V13.8497H45.7857V5.4483H42.5659V4.04694ZM57.3999 12.503C57.3999 12.6898 57.3635 12.8653 57.2905 13.0294C57.2222 13.1934 57.1265 13.337 57.0034 13.46C56.8849 13.5785 56.7437 13.6742 56.5796 13.7471C56.4201 13.8155 56.2469 13.8497 56.0601 13.8497H52.4439C52.2616 13.8497 52.0884 13.8155 51.9243 13.7471C51.7603 13.6742 51.6167 13.5785 51.4937 13.46C51.3752 13.337 51.2795 13.1934 51.2066 13.0294C51.1382 12.8653 51.104 12.6898 51.104 12.503V7.91608C51.104 7.72923 51.1382 7.55377 51.2066 7.38971C51.2795 7.22565 51.3752 7.08437 51.4937 6.96588C51.6167 6.84283 51.7603 6.74713 51.9243 6.67877C52.0884 6.60586 52.2616 6.5694 52.4439 6.5694H56.0601C56.2469 6.5694 56.4201 6.60586 56.5796 6.67877C56.7437 6.74713 56.8849 6.84283 57.0034 6.96588C57.1265 7.08437 57.2222 7.22565 57.2905 7.38971C57.3635 7.55377 57.3999 7.72923 57.3999 7.91608V12.503ZM52.4439 7.91608V12.503H56.0601V7.91608H52.4439ZM63.1353 15.463V16.7891H62.937C62.4175 16.7891 61.9458 16.7071 61.522 16.543C61.0982 16.3835 60.7359 16.1534 60.4351 15.8526C60.1388 15.5564 59.9087 15.1964 59.7446 14.7725C59.5851 14.3487 59.5054 13.877 59.5054 13.3575V6.78131C59.5054 6.26178 59.5851 5.7901 59.7446 5.36627C59.9087 4.94244 60.1388 4.58242 60.4351 4.28619C60.7359 3.98541 61.0982 3.75527 61.522 3.59576C61.9458 3.4317 62.4175 3.34967 62.937 3.34967H63.1353V4.68268H62.937C62.618 4.68268 62.3332 4.72825 62.0825 4.8194C61.8319 4.91054 61.62 5.04498 61.4468 5.22272C61.2736 5.39589 61.1392 5.60781 61.0435 5.85846C60.9523 6.10911 60.9067 6.39394 60.9067 6.71295V13.4327C60.9067 14.0798 61.0822 14.5788 61.4331 14.9297C61.7886 15.2852 62.2899 15.463 62.937 15.463H63.1353ZM71.4478 6.5694L68.8023 10.1241L71.5708 13.8497H69.9439L67.9888 11.2178L66.0269 13.8497H64.3999L67.1753 10.1241L64.5298 6.5694H66.1499L67.9888 9.03033L69.8208 6.5694H71.4478ZM73.0337 15.463C73.6808 15.463 74.1799 15.2852 74.5308 14.9297C74.8862 14.5788 75.064 14.0798 75.064 13.4327V6.71295C75.064 6.39394 75.0184 6.10911 74.9273 5.85846C74.8361 5.60781 74.7017 5.39589 74.5239 5.22272C74.3508 5.04498 74.1388 4.91054 73.8882 4.8194C73.6375 4.72825 73.3527 4.68268 73.0337 4.68268H72.8355V3.34967H73.0337C73.5532 3.34967 74.0249 3.4317 74.4487 3.59576C74.8726 3.75527 75.2326 3.98541 75.5288 4.28619C75.825 4.58242 76.0529 4.94244 76.2124 5.36627C76.3765 5.7901 76.4585 6.26178 76.4585 6.78131V13.3575C76.4585 13.877 76.3765 14.3487 76.2124 14.7725C76.0529 15.1964 75.825 15.5564 75.5288 15.8526C75.2326 16.1534 74.8726 16.3835 74.4487 16.543C74.0249 16.7071 73.5532 16.7891 73.0337 16.7891H72.8355V15.463H73.0337Z" fill="#F2D674"/>
<path d="M269.099 12.4618L273.364 6.41714H264.834L269.099 12.4618Z" fill="#F2D674"/>
</svg>
