<svg width="149" height="45" viewBox="0 0 149 45" fill="none" xmlns="http://www.w3.org/2000/svg">
<rect x="2.98846" y="3.26672" width="142.758" height="38.8797" rx="4.5" fill="#FFA3A3" stroke="#F07272" stroke-width="5"/>
<path d="M62.6278 21.3947C62.6278 23.7384 61.6278 25.0743 59.6278 25.4025L62.7919 32.1993H60.1317L57.0145 25.4845H51.7528V32.1993H49.3505V15.3947H58.5497C61.2684 15.3947 62.6278 16.7579 62.6278 19.4845V21.3947ZM51.7528 23.0822H58.4208C59.0614 23.0822 59.5224 22.9415 59.8036 22.6603C60.0849 22.379 60.2255 21.9181 60.2255 21.2775V19.6017C60.2255 18.9611 60.0849 18.5001 59.8036 18.2189C59.5224 17.9376 59.0614 17.797 58.4208 17.797H51.7528V23.0822ZM66.6474 15.3947H69.0497V29.797H78.6474V15.3947H81.0497V29.797C81.0497 30.1251 80.9872 30.4376 80.8622 30.7345C80.7372 31.0236 80.5653 31.2775 80.3466 31.4962C80.1278 31.715 79.87 31.8868 79.5731 32.0118C79.2841 32.1368 78.9755 32.1993 78.6474 32.1993H69.0497C68.7216 32.1993 68.4091 32.1368 68.1122 32.0118C67.8231 31.8868 67.5692 31.715 67.3505 31.4962C67.1317 31.2775 66.9599 31.0236 66.8349 30.7345C66.7099 30.4376 66.6474 30.1251 66.6474 29.797V15.3947ZM87.7763 32.1993H85.3739V15.3947H87.7763L97.8778 28.4259V15.3947H100.28V32.1993H97.8778L87.7763 19.1681V32.1993Z" fill="white"/>
</svg>
