<svg width="148" height="44" viewBox="0 0 148 44" fill="none" xmlns="http://www.w3.org/2000/svg">
<rect x="2.5" y="2.5" width="142.758" height="38.8797" rx="4.5" fill="#F2D674" stroke="#E7D080" stroke-width="5"/>
<path d="M62.1393 20.6279C62.1393 22.9717 61.1393 24.3076 59.1393 24.6357L62.3034 31.4326H59.6432L56.526 24.7178H51.2643V31.4326H48.862V14.6279H58.0612C60.78 14.6279 62.1393 15.9912 62.1393 18.7178V20.6279ZM51.2643 22.3154H57.9323C58.5729 22.3154 59.0339 22.1748 59.3151 21.8936C59.5964 21.6123 59.737 21.1514 59.737 20.5107V18.835C59.737 18.1943 59.5964 17.7334 59.3151 17.4521C59.0339 17.1709 58.5729 17.0303 57.9323 17.0303H51.2643V22.3154ZM66.1589 14.6279H68.5612V29.0303H78.1589V14.6279H80.5612V29.0303C80.5612 29.3584 80.4987 29.6709 80.3737 29.9678C80.2487 30.2568 80.0768 30.5107 79.8581 30.7295C79.6393 30.9482 79.3815 31.1201 79.0846 31.2451C78.7956 31.3701 78.487 31.4326 78.1589 31.4326H68.5612C68.2331 31.4326 67.9206 31.3701 67.6237 31.2451C67.3346 31.1201 67.0807 30.9482 66.862 30.7295C66.6432 30.5107 66.4714 30.2568 66.3464 29.9678C66.2214 29.6709 66.1589 29.3584 66.1589 29.0303V14.6279ZM87.2878 31.4326H84.8854V14.6279H87.2878L97.3893 27.6592V14.6279H99.7917V31.4326H97.3893L87.2878 18.4014V31.4326Z" fill="white"/>
</svg>
