<svg width="279" height="20" viewBox="0 0 279 20" fill="none" xmlns="http://www.w3.org/2000/svg">
<rect x="0.5" y="1.4101" width="277.502" height="16.0146" rx="2.5" fill="white" stroke="#F2D674"/>
<path d="M15.3087 11.9689V10.2805H12.1163C11.9295 10.2805 11.754 10.2463 11.59 10.1779C11.4259 10.105 11.2823 10.0093 11.1593 9.89081C11.0408 9.76776 10.9451 9.62421 10.8722 9.46014C10.8038 9.29608 10.7696 9.12063 10.7696 8.93378V7.38202C10.7696 7.19517 10.8038 7.01971 10.8722 6.85565C10.9451 6.69159 11.0408 6.55031 11.1593 6.43182C11.2823 6.30878 11.4259 6.21307 11.59 6.14471C11.754 6.0718 11.9295 6.03534 12.1163 6.03534H16.3751V7.38202H12.1163V8.93378H15.3087C15.4956 8.93378 15.6687 8.97024 15.8282 9.04315C15.9923 9.11151 16.1359 9.20721 16.2589 9.33026C16.382 9.44875 16.4777 9.59003 16.546 9.75409C16.6189 9.91815 16.6554 10.0936 16.6554 10.2805V11.9689C16.6554 12.1558 16.6189 12.3312 16.546 12.4953C16.4777 12.6594 16.382 12.8029 16.2589 12.926C16.1359 13.0445 15.9923 13.1402 15.8282 13.2131C15.6687 13.2814 15.4956 13.3156 15.3087 13.3156H10.7696V11.9689H15.3087ZM24.92 10.3625H20.1007V11.9689H24.92V13.3156H20.1007C19.9184 13.3156 19.7452 13.2814 19.5812 13.2131C19.4171 13.1402 19.2736 13.0445 19.1505 12.926C19.032 12.8029 18.9363 12.6594 18.8634 12.4953C18.795 12.3312 18.7609 12.1558 18.7609 11.9689V7.38202C18.7609 7.19517 18.795 7.01971 18.8634 6.85565C18.9363 6.69159 19.032 6.55031 19.1505 6.43182C19.2736 6.30878 19.4171 6.21307 19.5812 6.14471C19.7452 6.0718 19.9184 6.03534 20.1007 6.03534H23.5734C23.7602 6.03534 23.9357 6.0718 24.0997 6.14471C24.2638 6.21307 24.4051 6.30878 24.5236 6.43182C24.6466 6.55031 24.7423 6.69159 24.8107 6.85565C24.8836 7.01971 24.92 7.19517 24.92 7.38202V10.3625ZM20.1007 7.38202V9.01581H23.5734V7.38202H20.1007ZM33.3282 10.3625H28.5089V11.9689H33.3282V13.3156H28.5089C28.3266 13.3156 28.1534 13.2814 27.9894 13.2131C27.8253 13.1402 27.6818 13.0445 27.5587 12.926C27.4402 12.8029 27.3445 12.6594 27.2716 12.4953C27.2032 12.3312 27.1691 12.1558 27.1691 11.9689V7.38202C27.1691 7.19517 27.2032 7.01971 27.2716 6.85565C27.3445 6.69159 27.4402 6.55031 27.5587 6.43182C27.6818 6.30878 27.8253 6.21307 27.9894 6.14471C28.1534 6.0718 28.3266 6.03534 28.5089 6.03534H31.9816C32.1684 6.03534 32.3439 6.0718 32.5079 6.14471C32.672 6.21307 32.8133 6.30878 32.9318 6.43182C33.0548 6.55031 33.1505 6.69159 33.2189 6.85565C33.2918 7.01971 33.3282 7.19517 33.3282 7.38202V10.3625ZM28.5089 7.38202V9.01581H31.9816V7.38202H28.5089ZM39.0636 14.9289V16.2551H38.8654C38.3458 16.2551 37.8741 16.173 37.4503 16.009C37.0265 15.8495 36.6642 15.6193 36.3634 15.3185C36.0672 15.0223 35.837 14.6623 35.673 14.2385C35.5135 13.8146 35.4337 13.343 35.4337 12.8234V6.24725C35.4337 5.72772 35.5135 5.25604 35.673 4.83221C35.837 4.40839 36.0672 4.04836 36.3634 3.75214C36.6642 3.45135 37.0265 3.22121 37.4503 3.06171C37.8741 2.89764 38.3458 2.81561 38.8654 2.81561H39.0636V4.14862H38.8654C38.5463 4.14862 38.2615 4.19419 38.0109 4.28534C37.7602 4.37649 37.5483 4.51093 37.3751 4.68866C37.2019 4.86184 37.0675 5.07375 36.9718 5.3244C36.8807 5.57505 36.8351 5.85988 36.8351 6.17889V12.8986C36.8351 13.5458 37.0105 14.0448 37.3614 14.3957C37.7169 14.7512 38.2182 14.9289 38.8654 14.9289H39.0636ZM47.3761 6.03534L44.7306 9.59003L47.4991 13.3156H45.8722L43.9171 10.6838L41.9552 13.3156H40.3282L43.1036 9.59003L40.4581 6.03534H42.0782L43.9171 8.49628L45.7491 6.03534H47.3761ZM48.962 14.9289C49.6092 14.9289 50.1082 14.7512 50.4591 14.3957C50.8146 14.0448 50.9923 13.5458 50.9923 12.8986V6.17889C50.9923 5.85988 50.9467 5.57505 50.8556 5.3244C50.7644 5.07375 50.63 4.86184 50.4523 4.68866C50.2791 4.51093 50.0672 4.37649 49.8165 4.28534C49.5659 4.19419 49.281 4.14862 48.962 4.14862H48.7638V2.81561H48.962C49.4816 2.81561 49.9532 2.89764 50.3771 3.06171C50.8009 3.22121 51.1609 3.45135 51.4571 3.75214C51.7534 4.04836 51.9812 4.40839 52.1407 4.83221C52.3048 5.25604 52.3868 5.72772 52.3868 6.24725V12.8234C52.3868 13.343 52.3048 13.8146 52.1407 14.2385C51.9812 14.6623 51.7534 15.0223 51.4571 15.3185C51.1609 15.6193 50.8009 15.8495 50.3771 16.009C49.9532 16.173 49.4816 16.2551 48.962 16.2551H48.7638V14.9289H48.962Z" fill="#F2D674"/>
<path d="M269.099 12.5516L273.364 6.50698H264.834L269.099 12.5516Z" fill="#F2D674"/>
</svg>
