<svg width="279" height="20" viewBox="0 0 279 20" fill="none" xmlns="http://www.w3.org/2000/svg">
<rect x="0.72113" y="1.14032" width="277.502" height="16.0146" rx="2.5" fill="white" stroke="#C4C4C4"/>
<path d="M15.5298 11.6992V10.0107H12.3374C12.1506 10.0107 11.9751 9.9765 11.8111 9.90814C11.647 9.83523 11.5034 9.73952 11.3804 9.62103C11.2619 9.49799 11.1662 9.35443 11.0933 9.19037C11.0249 9.02631 10.9907 8.85085 10.9907 8.664V7.11224C10.9907 6.92539 11.0249 6.74994 11.0933 6.58588C11.1662 6.42181 11.2619 6.28054 11.3804 6.16205C11.5034 6.039 11.647 5.9433 11.8111 5.87494C11.9751 5.80202 12.1506 5.76556 12.3374 5.76556H16.5962V7.11224H12.3374V8.664H15.5298C15.7167 8.664 15.8898 8.70046 16.0493 8.77338C16.2134 8.84174 16.357 8.93744 16.48 9.06049C16.6031 9.17898 16.6988 9.32025 16.7671 9.48431C16.84 9.64838 16.8765 9.82383 16.8765 10.0107V11.6992C16.8765 11.886 16.84 12.0615 16.7671 12.2255C16.6988 12.3896 16.6031 12.5331 16.48 12.6562C16.357 12.7747 16.2134 12.8704 16.0493 12.9433C15.8898 13.0117 15.7167 13.0458 15.5298 13.0458H10.9907V11.6992H15.5298ZM25.1411 10.0927H20.3218V11.6992H25.1411V13.0458H20.3218C20.1395 13.0458 19.9663 13.0117 19.8023 12.9433C19.6382 12.8704 19.4947 12.7747 19.3716 12.6562C19.2531 12.5331 19.1574 12.3896 19.0845 12.2255C19.0161 12.0615 18.982 11.886 18.982 11.6992V7.11224C18.982 6.92539 19.0161 6.74994 19.0845 6.58588C19.1574 6.42181 19.2531 6.28054 19.3716 6.16205C19.4947 6.039 19.6382 5.9433 19.8023 5.87494C19.9663 5.80202 20.1395 5.76556 20.3218 5.76556H23.7945C23.9813 5.76556 24.1568 5.80202 24.3208 5.87494C24.4849 5.9433 24.6262 6.039 24.7447 6.16205C24.8677 6.28054 24.9634 6.42181 25.0318 6.58588C25.1047 6.74994 25.1411 6.92539 25.1411 7.11224V10.0927ZM20.3218 7.11224V8.74603H23.7945V7.11224H20.3218ZM33.5493 10.0927H28.73V11.6992H33.5493V13.0458H28.73C28.5477 13.0458 28.3745 13.0117 28.2105 12.9433C28.0464 12.8704 27.9029 12.7747 27.7798 12.6562C27.6613 12.5331 27.5656 12.3896 27.4927 12.2255C27.4243 12.0615 27.3902 11.886 27.3902 11.6992V7.11224C27.3902 6.92539 27.4243 6.74994 27.4927 6.58588C27.5656 6.42181 27.6613 6.28054 27.7798 6.16205C27.9029 6.039 28.0464 5.9433 28.2105 5.87494C28.3745 5.80202 28.5477 5.76556 28.73 5.76556H32.2027C32.3895 5.76556 32.565 5.80202 32.729 5.87494C32.8931 5.9433 33.0344 6.039 33.1529 6.16205C33.2759 6.28054 33.3716 6.42181 33.44 6.58588C33.5129 6.74994 33.5493 6.92539 33.5493 7.11224V10.0927ZM28.73 7.11224V8.74603H32.2027V7.11224H28.73ZM39.2847 14.6591V15.9853H39.0865C38.5669 15.9853 38.0952 15.9033 37.6714 15.7392C37.2476 15.5797 36.8853 15.3495 36.5845 15.0488C36.2883 14.7525 36.0581 14.3925 35.8941 13.9687C35.7346 13.5449 35.6548 13.0732 35.6548 12.5536V5.97748C35.6548 5.45795 35.7346 4.98627 35.8941 4.56244C36.0581 4.13861 36.2883 3.77858 36.5845 3.48236C36.8853 3.18158 37.2476 2.95144 37.6714 2.79193C38.0952 2.62787 38.5669 2.54584 39.0865 2.54584H39.2847V3.87885H39.0865C38.7674 3.87885 38.4826 3.92442 38.232 4.01556C37.9813 4.10671 37.7694 4.24115 37.5962 4.41888C37.423 4.59206 37.2886 4.80398 37.1929 5.05463C37.1018 5.30528 37.0562 5.59011 37.0562 5.90912V12.6288C37.0562 13.276 37.2316 13.775 37.5825 14.1259C37.938 14.4814 38.4393 14.6591 39.0865 14.6591H39.2847ZM47.5972 5.76556L44.9517 9.32025L47.7202 13.0458H46.0933L44.1382 10.414L42.1763 13.0458H40.5493L43.3247 9.32025L40.6792 5.76556H42.2993L44.1382 8.2265L45.9702 5.76556H47.5972ZM49.1831 14.6591C49.8303 14.6591 50.3293 14.4814 50.6802 14.1259C51.0357 13.775 51.2134 13.276 51.2134 12.6288V5.90912C51.2134 5.59011 51.1678 5.30528 51.0767 5.05463C50.9855 4.80398 50.8511 4.59206 50.6734 4.41888C50.5002 4.24115 50.2883 4.10671 50.0376 4.01556C49.787 3.92442 49.5021 3.87885 49.1831 3.87885H48.9849V2.54584H49.1831C49.7027 2.54584 50.1743 2.62787 50.5982 2.79193C51.022 2.95144 51.382 3.18158 51.6782 3.48236C51.9745 3.77858 52.2023 4.13861 52.3618 4.56244C52.5259 4.98627 52.6079 5.45795 52.6079 5.97748V12.5536C52.6079 13.0732 52.5259 13.5449 52.3618 13.9687C52.2023 14.3925 51.9745 14.7525 51.6782 15.0488C51.382 15.3495 51.022 15.5797 50.5982 15.7392C50.1743 15.9033 49.7027 15.9853 49.1831 15.9853H48.9849V14.6591H49.1831Z" fill="#AAA8A8"/>
<path d="M269.32 12.2819L273.586 6.23721H265.055L269.32 12.2819Z" fill="#C4C4C4"/>
</svg>
