<svg width="279" height="18" viewBox="0 0 279 18" fill="none" xmlns="http://www.w3.org/2000/svg">
<rect x="0.5" y="0.5" width="277.502" height="16.0146" rx="2.5" fill="white" stroke="#F2D674"/>
<path d="M15.5607 11.4443V9.75586H12.3683C12.1814 9.75586 12.006 9.72168 11.8419 9.65332C11.6778 9.5804 11.5343 9.4847 11.4112 9.36621C11.2927 9.24316 11.197 9.09961 11.1241 8.93555C11.0558 8.77148 11.0216 8.59603 11.0216 8.40918V6.85742C11.0216 6.67057 11.0558 6.49512 11.1241 6.33105C11.197 6.16699 11.2927 6.02572 11.4112 5.90723C11.5343 5.78418 11.6778 5.68848 11.8419 5.62012C12.006 5.5472 12.1814 5.51074 12.3683 5.51074H16.6271V6.85742H12.3683V8.40918H15.5607C15.7475 8.40918 15.9207 8.44564 16.0802 8.51855C16.2442 8.58691 16.3878 8.68262 16.5108 8.80566C16.6339 8.92415 16.7296 9.06543 16.798 9.22949C16.8709 9.39355 16.9073 9.56901 16.9073 9.75586V11.4443C16.9073 11.6312 16.8709 11.8066 16.798 11.9707C16.7296 12.1348 16.6339 12.2783 16.5108 12.4014C16.3878 12.5199 16.2442 12.6156 16.0802 12.6885C15.9207 12.7568 15.7475 12.791 15.5607 12.791H11.0216V11.4443H15.5607ZM18.589 5.51074H20.3663V3.26855H21.713V5.51074H24.1056V6.85742H21.713V11.4443H24.1056V12.791H21.713C21.5307 12.791 21.3575 12.7568 21.1935 12.6885C21.0294 12.6156 20.8858 12.5199 20.7628 12.4014C20.6398 12.2783 20.5418 12.1348 20.4689 11.9707C20.4005 11.8066 20.3663 11.6312 20.3663 11.4443V6.85742H18.589V5.51074ZM26.3546 9.6123C26.3546 9.42546 26.3888 9.25228 26.4571 9.09277C26.5301 8.92871 26.6258 8.78516 26.7442 8.66211C26.8673 8.53906 27.0108 8.44336 27.1749 8.375C27.339 8.30208 27.5121 8.26562 27.6944 8.26562H31.1671V6.85742H26.7716V5.51074H31.1671C31.3539 5.51074 31.5294 5.5472 31.6935 5.62012C31.8575 5.68848 31.9988 5.78418 32.1173 5.90723C32.2403 6.02572 32.336 6.16699 32.4044 6.33105C32.4773 6.49512 32.5138 6.67057 32.5138 6.85742V12.791H31.1671V11.5605C31.1534 11.7292 31.1079 11.8887 31.0304 12.0391C30.9529 12.1895 30.8526 12.3216 30.7296 12.4355C30.6111 12.5449 30.4744 12.6315 30.3194 12.6953C30.1645 12.7591 30.0004 12.791 29.8273 12.791H27.6944C27.5121 12.791 27.339 12.7568 27.1749 12.6885C27.0108 12.6156 26.8673 12.5199 26.7442 12.4014C26.6258 12.2783 26.5301 12.1348 26.4571 11.9707C26.3888 11.8066 26.3546 11.6312 26.3546 11.4443V9.6123ZM27.6944 11.4443H31.1671V9.6123H27.6944V11.4443ZM36.1026 6.85742V12.791H34.7628V5.51074H36.1026V6.7959C36.1118 6.61816 36.1528 6.45182 36.2257 6.29688C36.2986 6.13737 36.3943 6.00065 36.5128 5.88672C36.6358 5.76823 36.7771 5.67708 36.9366 5.61328C37.0961 5.54492 37.267 5.51074 37.4493 5.51074H38.878C39.0649 5.51074 39.2381 5.5472 39.3976 5.62012C39.5616 5.68848 39.7052 5.78418 39.8282 5.90723C39.9513 6.02572 40.047 6.16699 40.1153 6.33105C40.1883 6.49512 40.2247 6.67057 40.2247 6.85742V8.08789H38.878V6.85742H36.1026ZM41.4757 5.51074H43.253V3.26855H44.5997V5.51074H46.9923V6.85742H44.5997V11.4443H46.9923V12.791H44.5997C44.4174 12.791 44.2442 12.7568 44.0802 12.6885C43.9161 12.6156 43.7726 12.5199 43.6495 12.4014C43.5265 12.2783 43.4285 12.1348 43.3556 11.9707C43.2872 11.8066 43.253 11.6312 43.253 11.4443V6.85742H41.4757V5.51074ZM52.7276 14.4043V15.7305H52.5294C52.0099 15.7305 51.5382 15.6484 51.1144 15.4844C50.6905 15.3249 50.3282 15.0947 50.0275 14.7939C49.7312 14.4977 49.5011 14.1377 49.337 13.7139C49.1775 13.29 49.0978 12.8184 49.0978 12.2988V5.72266C49.0978 5.20312 49.1775 4.73145 49.337 4.30762C49.5011 3.88379 49.7312 3.52376 50.0275 3.22754C50.3282 2.92676 50.6905 2.69661 51.1144 2.53711C51.5382 2.37305 52.0099 2.29102 52.5294 2.29102H52.7276V3.62402H52.5294C52.2104 3.62402 51.9256 3.6696 51.6749 3.76074C51.4243 3.85189 51.2123 3.98633 51.0392 4.16406C50.866 4.33724 50.7316 4.54915 50.6358 4.7998C50.5447 5.05046 50.4991 5.33529 50.4991 5.6543V12.374C50.4991 13.0212 50.6746 13.5202 51.0255 13.8711C51.381 14.2266 51.8823 14.4043 52.5294 14.4043H52.7276ZM54.6144 14.4043C55.2615 14.4043 55.7605 14.2266 56.1114 13.8711C56.4669 13.5202 56.6446 13.0212 56.6446 12.374V5.6543C56.6446 5.33529 56.5991 5.05046 56.5079 4.7998C56.4168 4.54915 56.2823 4.33724 56.1046 4.16406C55.9314 3.98633 55.7195 3.85189 55.4689 3.76074C55.2182 3.6696 54.9334 3.62402 54.6144 3.62402H54.4161V2.29102H54.6144C55.1339 2.29102 55.6056 2.37305 56.0294 2.53711C56.4532 2.69661 56.8133 2.92676 57.1095 3.22754C57.4057 3.52376 57.6336 3.88379 57.7931 4.30762C57.9571 4.73145 58.0392 5.20312 58.0392 5.72266V12.2988C58.0392 12.8184 57.9571 13.29 57.7931 13.7139C57.6336 14.1377 57.4057 14.4977 57.1095 14.7939C56.8133 15.0947 56.4532 15.3249 56.0294 15.4844C55.6056 15.6484 55.1339 15.7305 54.6144 15.7305H54.4161V14.4043H54.6144Z" fill="#F2D674"/>
<path d="M269.099 11.6415L273.364 5.59689H264.834L269.099 11.6415Z" fill="#F2D674"/>
</svg>
