<svg width="279" height="18" viewBox="0 0 279 18" fill="none" xmlns="http://www.w3.org/2000/svg">
<rect x="0.72113" y="1.23022" width="277.502" height="16.0146" rx="2.5" fill="white" stroke="#C4C4C4"/>
<path d="M15.7818 12.1746V10.4861H12.5894C12.4025 10.4861 12.2271 10.4519 12.063 10.3835C11.899 10.3106 11.7554 10.2149 11.6324 10.0964C11.5139 9.97339 11.4182 9.82983 11.3452 9.66577C11.2769 9.50171 11.2427 9.32625 11.2427 9.1394V7.58765C11.2427 7.4008 11.2769 7.22534 11.3452 7.06128C11.4182 6.89722 11.5139 6.75594 11.6324 6.63745C11.7554 6.5144 11.899 6.4187 12.063 6.35034C12.2271 6.27743 12.4025 6.24097 12.5894 6.24097H16.8482V7.58765H12.5894V9.1394H15.7818C15.9686 9.1394 16.1418 9.17586 16.3013 9.24878C16.4654 9.31714 16.6089 9.41284 16.732 9.53589C16.855 9.65438 16.9507 9.79565 17.0191 9.95972C17.092 10.1238 17.1284 10.2992 17.1284 10.4861V12.1746C17.1284 12.3614 17.092 12.5369 17.0191 12.7009C16.9507 12.865 16.855 13.0085 16.732 13.1316C16.6089 13.2501 16.4654 13.3458 16.3013 13.4187C16.1418 13.4871 15.9686 13.5212 15.7818 13.5212H11.2427V12.1746H15.7818ZM18.8101 6.24097H20.5874V3.99878H21.9341V6.24097H24.3267V7.58765H21.9341V12.1746H24.3267V13.5212H21.9341C21.7518 13.5212 21.5786 13.4871 21.4146 13.4187C21.2505 13.3458 21.107 13.2501 20.9839 13.1316C20.8609 13.0085 20.7629 12.865 20.69 12.7009C20.6216 12.5369 20.5874 12.3614 20.5874 12.1746V7.58765H18.8101V6.24097ZM26.5757 10.3425C26.5757 10.1557 26.6099 9.9825 26.6783 9.823C26.7512 9.65894 26.8469 9.51538 26.9654 9.39233C27.0884 9.26929 27.232 9.17358 27.396 9.10522C27.5601 9.03231 27.7333 8.99585 27.9156 8.99585H31.3882V7.58765H26.9927V6.24097H31.3882C31.5751 6.24097 31.7505 6.27743 31.9146 6.35034C32.0786 6.4187 32.2199 6.5144 32.3384 6.63745C32.4615 6.75594 32.5572 6.89722 32.6255 7.06128C32.6984 7.22534 32.7349 7.4008 32.7349 7.58765V13.5212H31.3882V12.2908C31.3745 12.4594 31.329 12.6189 31.2515 12.7693C31.174 12.9197 31.0738 13.0518 30.9507 13.1658C30.8322 13.2751 30.6955 13.3617 30.5406 13.4255C30.3856 13.4893 30.2215 13.5212 30.0484 13.5212H27.9156C27.7333 13.5212 27.5601 13.4871 27.396 13.4187C27.232 13.3458 27.0884 13.2501 26.9654 13.1316C26.8469 13.0085 26.7512 12.865 26.6783 12.7009C26.6099 12.5369 26.5757 12.3614 26.5757 12.1746V10.3425ZM27.9156 12.1746H31.3882V10.3425H27.9156V12.1746ZM36.3238 7.58765V13.5212H34.9839V6.24097H36.3238V7.52612C36.3329 7.34839 36.3739 7.18205 36.4468 7.0271C36.5197 6.86759 36.6154 6.73088 36.7339 6.61694C36.857 6.49845 36.9982 6.40731 37.1577 6.34351C37.3172 6.27515 37.4881 6.24097 37.6704 6.24097H39.0991C39.286 6.24097 39.4592 6.27743 39.6187 6.35034C39.7827 6.4187 39.9263 6.5144 40.0493 6.63745C40.1724 6.75594 40.2681 6.89722 40.3365 7.06128C40.4094 7.22534 40.4458 7.4008 40.4458 7.58765V8.81812H39.0991V7.58765H36.3238ZM41.6968 6.24097H43.4742V3.99878H44.8208V6.24097H47.2134V7.58765H44.8208V12.1746H47.2134V13.5212H44.8208C44.6385 13.5212 44.4654 13.4871 44.3013 13.4187C44.1372 13.3458 43.9937 13.2501 43.8706 13.1316C43.7476 13.0085 43.6496 12.865 43.5767 12.7009C43.5083 12.5369 43.4742 12.3614 43.4742 12.1746V7.58765H41.6968V6.24097ZM52.9488 15.1345V16.4607H52.7505C52.231 16.4607 51.7593 16.3787 51.3355 16.2146C50.9117 16.0551 50.5493 15.825 50.2486 15.5242C49.9523 15.2279 49.7222 14.8679 49.5581 14.4441C49.3986 14.0203 49.3189 13.5486 49.3189 13.0291V6.45288C49.3189 5.93335 49.3986 5.46167 49.5581 5.03784C49.7222 4.61401 49.9523 4.25399 50.2486 3.95776C50.5493 3.65698 50.9117 3.42684 51.3355 3.26733C51.7593 3.10327 52.231 3.02124 52.7505 3.02124H52.9488V4.35425H52.7505C52.4315 4.35425 52.1467 4.39982 51.896 4.49097C51.6454 4.58211 51.4335 4.71655 51.2603 4.89429C51.0871 5.06746 50.9527 5.27938 50.857 5.53003C50.7658 5.78068 50.7202 6.06551 50.7202 6.38452V13.1042C50.7202 13.7514 50.8957 14.2504 51.2466 14.6013C51.6021 14.9568 52.1034 15.1345 52.7505 15.1345H52.9488ZM54.8355 15.1345C55.4826 15.1345 55.9816 14.9568 56.3326 14.6013C56.688 14.2504 56.8658 13.7514 56.8658 13.1042V6.38452C56.8658 6.06551 56.8202 5.78068 56.729 5.53003C56.6379 5.27938 56.5034 5.06746 56.3257 4.89429C56.1525 4.71655 55.9406 4.58211 55.69 4.49097C55.4393 4.39982 55.1545 4.35425 54.8355 4.35425H54.6372V3.02124H54.8355C55.355 3.02124 55.8267 3.10327 56.2505 3.26733C56.6743 3.42684 57.0344 3.65698 57.3306 3.95776C57.6268 4.25399 57.8547 4.61401 58.0142 5.03784C58.1783 5.46167 58.2603 5.93335 58.2603 6.45288V13.0291C58.2603 13.5486 58.1783 14.0203 58.0142 14.4441C57.8547 14.8679 57.6268 15.2279 57.3306 15.5242C57.0344 15.825 56.6743 16.0551 56.2505 16.2146C55.8267 16.3787 55.355 16.4607 54.8355 16.4607H54.6372V15.1345H54.8355Z" fill="#AAA8A8"/>
<path d="M269.32 12.3718L273.586 6.32711H265.055L269.32 12.3718Z" fill="#C4C4C4"/>
</svg>
